<svg width="854" height="1024" viewBox="0 0 854 1024" fill="none" xmlns="http://www.w3.org/2000/svg">
<ellipse cx="503.466" cy="397.653" rx="42.6667" ry="42.6667" fill="white"/>
<ellipse cx="356.694" cy="646.827" rx="42.6667" ry="42.6667" fill="white"/>
<ellipse cx="206.507" cy="646.827" rx="42.6667" ry="42.6667" fill="white"/>
<rect x="23.8936" y="114.16" width="805.547" height="64.8533" rx="15" fill="white"/>
<path d="M427.523 166.585C425.523 166.585 423.722 166.187 422.119 165.392C420.517 164.596 419.233 163.505 418.267 162.119C417.301 160.732 416.773 159.153 416.682 157.38H420.773C420.932 158.96 421.648 160.267 422.92 161.301C424.205 162.323 425.739 162.835 427.523 162.835C428.955 162.835 430.227 162.499 431.341 161.829C432.466 161.159 433.347 160.238 433.983 159.068C434.631 157.886 434.955 156.551 434.955 155.062C434.955 153.539 434.619 152.181 433.949 150.988C433.29 149.784 432.381 148.835 431.222 148.142C430.063 147.448 428.739 147.096 427.25 147.085C426.182 147.073 425.085 147.238 423.96 147.579C422.835 147.909 421.909 148.335 421.182 148.857L417.227 148.38L419.341 131.198H437.477V134.948H422.886L421.659 145.244H421.864C422.58 144.676 423.477 144.204 424.557 143.829C425.636 143.454 426.761 143.267 427.932 143.267C430.068 143.267 431.972 143.778 433.642 144.801C435.324 145.812 436.642 147.198 437.597 148.96C438.562 150.721 439.045 152.732 439.045 154.994C439.045 157.221 438.545 159.21 437.545 160.96C436.557 162.698 435.193 164.073 433.455 165.085C431.716 166.085 429.739 166.585 427.523 166.585Z" fill="black"/>
<rect y="20" width="853.333" height="10" fill="#747474"/>
<rect y="768" width="853.333" height="10" fill="#747474"/>
<rect y="269.652" width="853.333" height="10" fill="#747474"/>
<rect y="518.826" width="853.333" height="10" fill="#747474"/>
<rect width="853.333" height="10" transform="matrix(1 0 0 -1 0 1024)" fill="#747474"/>
<line x1="654.447" y1="1.01848e-07" x2="654.447" y2="1024" stroke="white" stroke-width="5"/>
<line x1="53.7002" y1="1.01848e-07" x2="53.7001" y2="1024" stroke="white" stroke-width="5"/>
<line x1="801.22" y1="1.01848e-07" x2="801.22" y2="1024" stroke="white" stroke-width="5"/>
<path d="M354.987 0L354.987 1024" stroke="white" stroke-width="5"/>
<line x1="507.673" y1="1.01848e-07" x2="507.673" y2="1024" stroke="white" stroke-width="5"/>
<path d="M204.8 0L204.8 1024" stroke="white" stroke-width="5"/>
</svg>
