<svg width="854" height="1024" viewBox="0 0 854 1024" fill="none" xmlns="http://www.w3.org/2000/svg">
<rect x="0.333252" width="853.33" height="30.7199" fill="white"/>
<rect x="0.333252" y="768" width="853.333" height="10" fill="#747474"/>
<rect x="0.333252" y="269.652" width="853.333" height="10" fill="#747474"/>
<rect x="0.333252" y="518.826" width="853.333" height="10" fill="#747474"/>
<rect width="853.333" height="10" transform="matrix(1 0 0 -1 0.333252 1024)" fill="#747474"/>
<line x1="654.78" y1="1.01848e-07" x2="654.78" y2="1024" stroke="white" stroke-width="5"/>
<line x1="54.0332" y1="1.01848e-07" x2="54.0332" y2="1024" stroke="white" stroke-width="5"/>
<line x1="801.553" y1="1.01848e-07" x2="801.553" y2="1024" stroke="white" stroke-width="5"/>
<path d="M355.32 0L355.32 1024" stroke="white" stroke-width="5"/>
<line x1="508.007" y1="1.01848e-07" x2="508.007" y2="1024" stroke="white" stroke-width="5"/>
<path d="M205.133 0L205.133 1024" stroke="white" stroke-width="5"/>
<circle cx="505.667" cy="897.667" r="42.6665" fill="white"/>
<circle cx="654.667" cy="655.667" r="42.6665" fill="white"/>
<circle cx="354.667" cy="897.667" r="42.6665" fill="white"/>
<rect x="24" y="361" width="805.544" height="64.8531" rx="15" fill="white"/>
<path d="M423.559 413.826V410.758L435.081 398.144C436.434 396.667 437.547 395.383 438.422 394.292C439.297 393.19 439.945 392.156 440.366 391.19C440.797 390.213 441.013 389.19 441.013 388.122C441.013 386.894 440.718 385.832 440.127 384.934C439.547 384.036 438.752 383.343 437.741 382.855C436.729 382.366 435.593 382.122 434.331 382.122C432.991 382.122 431.82 382.4 430.82 382.957C429.831 383.502 429.064 384.269 428.519 385.258C427.985 386.247 427.718 387.406 427.718 388.735H423.695C423.695 386.69 424.167 384.894 425.11 383.349C426.053 381.803 427.337 380.599 428.962 379.735C430.598 378.872 432.434 378.44 434.468 378.44C436.513 378.44 438.326 378.872 439.905 379.735C441.485 380.599 442.723 381.764 443.621 383.23C444.519 384.695 444.968 386.326 444.968 388.122C444.968 389.406 444.735 390.661 444.269 391.889C443.814 393.105 443.019 394.463 441.883 395.963C440.758 397.451 439.195 399.269 437.195 401.417L429.354 409.803V410.076H445.581V413.826H423.559Z" fill="black"/>
</svg>
