<svg width="854" height="1024" viewBox="0 0 854 1024" fill="none" xmlns="http://www.w3.org/2000/svg">
<circle cx="206.839" cy="650.237" r="42.6665" fill="white"/>
<circle cx="653.984" cy="155.305" r="42.6665" fill="white"/>
<circle cx="357.025" cy="401.065" r="42.6665" fill="white"/>
<rect x="0.333008" width="853.33" height="30.7199" fill="white"/>
<rect x="0.333008" y="768" width="853.333" height="10" fill="#747474"/>
<rect x="0.333008" y="269.652" width="853.333" height="10" fill="#747474"/>
<rect x="0.333008" y="518.826" width="853.333" height="10" fill="#747474"/>
<rect width="853.333" height="10" transform="matrix(1 0 0 -1 0.333008 1024)" fill="#747474"/>
<line x1="654.78" y1="1.01848e-07" x2="654.78" y2="1024" stroke="white" stroke-width="5"/>
<line x1="54.0332" y1="1.01848e-07" x2="54.0332" y2="1024" stroke="white" stroke-width="5"/>
<line x1="801.553" y1="1.01848e-07" x2="801.553" y2="1024" stroke="white" stroke-width="5"/>
<path d="M355.32 0L355.32 1024" stroke="white" stroke-width="5"/>
<line x1="508.006" y1="1.01848e-07" x2="508.006" y2="1024" stroke="white" stroke-width="5"/>
<path d="M205.133 0L205.133 1024" stroke="white" stroke-width="5"/>
</svg>
