<svg width="854" height="1024" viewBox="0 0 854 1024" fill="none" xmlns="http://www.w3.org/2000/svg">
<path d="M395.945 630.93C395.945 654.494 376.843 673.597 353.279 673.597C329.715 673.597 310.612 654.494 310.612 630.93C310.612 607.366 329.715 588.264 353.279 588.264C376.843 588.264 395.945 607.366 395.945 630.93Z" fill="white"/>
<path d="M696.317 378.346C696.317 401.91 677.215 421.013 653.651 421.013C630.087 421.013 610.984 401.91 610.984 378.346C610.984 354.782 630.087 335.68 653.651 335.68C677.215 335.68 696.317 354.782 696.317 378.346Z" fill="white"/>
<rect y="20" width="853.33" height="10" fill="#747474"/>
<rect x="23.8933" y="100.16" width="805.544" height="64.8531" rx="15" fill="white"/>
<path d="M435.247 153.464C432.997 153.464 430.992 153.077 429.23 152.305C427.48 151.532 426.088 150.458 425.054 149.083C424.032 147.697 423.475 146.089 423.384 144.259H427.679C427.77 145.384 428.157 146.356 428.838 147.174C429.52 147.981 430.412 148.606 431.515 149.049C432.617 149.492 433.838 149.714 435.179 149.714C436.679 149.714 438.009 149.452 439.168 148.93C440.327 148.407 441.236 147.68 441.895 146.748C442.554 145.816 442.884 144.736 442.884 143.509C442.884 142.225 442.566 141.094 441.929 140.117C441.293 139.128 440.361 138.356 439.134 137.799C437.907 137.242 436.407 136.964 434.634 136.964H431.838V133.214H434.634C436.02 133.214 437.236 132.964 438.282 132.464C439.338 131.964 440.162 131.259 440.753 130.35C441.355 129.441 441.657 128.373 441.657 127.145C441.657 125.964 441.395 124.935 440.872 124.06C440.35 123.185 439.611 122.503 438.657 122.015C437.713 121.526 436.6 121.282 435.316 121.282C434.111 121.282 432.975 121.503 431.907 121.947C430.85 122.378 429.986 123.009 429.316 123.839C428.645 124.657 428.282 125.645 428.225 126.805H424.134C424.202 124.975 424.753 123.373 425.787 121.998C426.821 120.611 428.174 119.532 429.844 118.759C431.526 117.986 433.372 117.6 435.384 117.6C437.543 117.6 439.395 118.037 440.941 118.912C442.486 119.776 443.674 120.918 444.503 122.339C445.333 123.759 445.747 125.293 445.747 126.941C445.747 128.907 445.23 130.583 444.196 131.969C443.174 133.356 441.782 134.316 440.02 134.85V135.123C442.225 135.486 443.946 136.424 445.185 137.935C446.424 139.435 447.043 141.293 447.043 143.509C447.043 145.407 446.526 147.111 445.492 148.623C444.469 150.123 443.071 151.305 441.299 152.168C439.526 153.032 437.509 153.464 435.247 153.464Z" fill="black"/>
<rect y="768" width="853.333" height="10" fill="#747474"/>
<rect y="269.652" width="853.333" height="10" fill="#747474"/>
<rect y="518.826" width="853.333" height="10" fill="#747474"/>
<rect width="853.333" height="10" transform="matrix(1 0 0 -1 0 1024)" fill="#747474"/>
<line x1="654.447" y1="1.01848e-07" x2="654.447" y2="1024" stroke="white" stroke-width="5"/>
<line x1="53.7" y1="1.01848e-07" x2="53.6999" y2="1024" stroke="white" stroke-width="5"/>
<line x1="801.22" y1="1.01848e-07" x2="801.22" y2="1024" stroke="white" stroke-width="5"/>
<path d="M354.987 0L354.987 1024" stroke="white" stroke-width="5"/>
<line x1="507.673" y1="1.01848e-07" x2="507.673" y2="1024" stroke="white" stroke-width="5"/>
<path d="M204.8 0L204.8 1024" stroke="white" stroke-width="5"/>
</svg>
