<svg width="854" height="1024" viewBox="0 0 854 1024" fill="none" xmlns="http://www.w3.org/2000/svg">
<path d="M696.32 627.518C696.32 651.082 677.218 670.185 653.654 670.185C630.09 670.185 610.987 651.082 610.987 627.518C610.987 603.954 630.09 584.852 653.654 584.852C677.218 584.852 696.32 603.954 696.32 627.518Z" fill="white"/>
<circle cx="506.881" cy="627.518" r="42.6665" fill="white"/>
<circle cx="356.695" cy="627.518" r="42.6665" fill="white"/>
<rect x="23.896" y="114.16" width="805.544" height="64.8531" rx="15" fill="white"/>
<path d="M434.364 167.464C432.364 167.464 430.563 167.066 428.961 166.27C427.358 165.475 426.074 164.384 425.108 162.998C424.142 161.611 423.614 160.032 423.523 158.259H427.614C427.773 159.839 428.489 161.145 429.762 162.18C431.046 163.202 432.58 163.714 434.364 163.714C435.796 163.714 437.069 163.378 438.182 162.708C439.307 162.037 440.188 161.117 440.824 159.947C441.472 158.765 441.796 157.43 441.796 155.941C441.796 154.418 441.461 153.06 440.79 151.867C440.131 150.662 439.222 149.714 438.063 149.02C436.904 148.327 435.58 147.975 434.091 147.964C433.023 147.952 431.927 148.117 430.802 148.458C429.677 148.787 428.75 149.214 428.023 149.736L424.069 149.259L426.182 132.077H444.319V135.827H429.728L428.5 146.123H428.705C429.421 145.555 430.319 145.083 431.398 144.708C432.478 144.333 433.603 144.145 434.773 144.145C436.909 144.145 438.813 144.657 440.483 145.68C442.165 146.691 443.483 148.077 444.438 149.839C445.404 151.6 445.887 153.611 445.887 155.873C445.887 158.1 445.387 160.089 444.387 161.839C443.398 163.577 442.034 164.952 440.296 165.964C438.557 166.964 436.58 167.464 434.364 167.464Z" fill="black"/>
<rect x="0.00292969" y="20" width="853.33" height="10" fill="#747474"/>
<rect x="0.00292969" y="768" width="853.333" height="10" fill="#747474"/>
<rect x="0.00292969" y="269.652" width="853.333" height="10" fill="#747474"/>
<rect x="0.00292969" y="518.826" width="853.333" height="10" fill="#747474"/>
<rect width="853.333" height="10" transform="matrix(1 0 0 -1 0.00292969 1024)" fill="#747474"/>
<line x1="654.45" y1="1.01848e-07" x2="654.45" y2="1024" stroke="white" stroke-width="5"/>
<line x1="53.7031" y1="1.01848e-07" x2="53.7031" y2="1024" stroke="white" stroke-width="5"/>
<line x1="801.223" y1="1.01848e-07" x2="801.223" y2="1024" stroke="white" stroke-width="5"/>
<path d="M354.99 0L354.99 1024" stroke="white" stroke-width="5"/>
<line x1="507.676" y1="1.01848e-07" x2="507.676" y2="1024" stroke="white" stroke-width="5"/>
<path d="M204.803 0L204.803 1024" stroke="white" stroke-width="5"/>
</svg>
