<svg width="854" height="1024" viewBox="0 0 854 1024" fill="none" xmlns="http://www.w3.org/2000/svg">
<path d="M696.987 374.932C696.987 398.496 677.885 417.599 654.321 417.599C630.757 417.599 611.654 398.496 611.654 374.932C611.654 351.368 630.757 332.266 654.321 332.266C677.885 332.266 696.987 351.368 696.987 374.932Z" fill="white"/>
<path d="M400.028 630.93C400.028 654.494 380.926 673.597 357.362 673.597C333.798 673.597 314.695 654.494 314.695 630.93C314.695 607.366 333.798 588.264 357.362 588.264C380.926 588.264 400.028 607.366 400.028 630.93Z" fill="white"/>
<path d="M247.333 889.667C247.333 913.231 228.231 932.333 204.667 932.333C181.102 932.333 162 913.231 162 889.667C162 866.102 181.102 847 204.667 847C228.231 847 247.333 866.102 247.333 889.667Z" fill="white"/>
<rect x="0.669922" y="20" width="853.33" height="10" fill="#747474"/>
<rect x="24.5635" y="114.16" width="805.544" height="64.8531" rx="15" fill="white"/>
<path d="M435.918 167.464C433.668 167.464 431.662 167.077 429.901 166.305C428.151 165.532 426.759 164.458 425.725 163.083C424.702 161.697 424.145 160.089 424.054 158.259H428.35C428.441 159.384 428.827 160.356 429.509 161.174C430.191 161.981 431.083 162.606 432.185 163.049C433.287 163.492 434.509 163.714 435.85 163.714C437.35 163.714 438.679 163.452 439.838 162.93C440.997 162.407 441.907 161.68 442.566 160.748C443.225 159.816 443.554 158.736 443.554 157.509C443.554 156.225 443.236 155.094 442.6 154.117C441.963 153.128 441.032 152.356 439.804 151.799C438.577 151.242 437.077 150.964 435.304 150.964H432.509V147.214H435.304C436.691 147.214 437.907 146.964 438.952 146.464C440.009 145.964 440.833 145.259 441.424 144.35C442.026 143.441 442.327 142.373 442.327 141.145C442.327 139.964 442.066 138.935 441.543 138.06C441.02 137.185 440.282 136.503 439.327 136.015C438.384 135.526 437.27 135.282 435.986 135.282C434.782 135.282 433.645 135.503 432.577 135.947C431.52 136.378 430.657 137.009 429.986 137.839C429.316 138.657 428.952 139.645 428.895 140.805H424.804C424.872 138.975 425.424 137.373 426.458 135.998C427.492 134.611 428.844 133.532 430.514 132.759C432.196 131.986 434.043 131.6 436.054 131.6C438.213 131.6 440.066 132.037 441.611 132.912C443.157 133.776 444.344 134.918 445.174 136.339C446.003 137.759 446.418 139.293 446.418 140.941C446.418 142.907 445.901 144.583 444.867 145.969C443.844 147.356 442.452 148.316 440.691 148.85V149.123C442.895 149.486 444.617 150.424 445.855 151.935C447.094 153.435 447.713 155.293 447.713 157.509C447.713 159.407 447.196 161.111 446.162 162.623C445.139 164.123 443.742 165.305 441.969 166.168C440.196 167.032 438.179 167.464 435.918 167.464Z" fill="black"/>
<rect x="0.669922" y="768" width="853.333" height="10" fill="#747474"/>
<rect x="0.669922" y="269.652" width="853.333" height="10" fill="#747474"/>
<rect x="0.669922" y="518.826" width="853.333" height="10" fill="#747474"/>
<rect width="853.333" height="10" transform="matrix(1 0 0 -1 0.669922 1024)" fill="#747474"/>
<line x1="655.116" y1="1.01848e-07" x2="655.116" y2="1024" stroke="white" stroke-width="5"/>
<line x1="54.3701" y1="1.01848e-07" x2="54.3701" y2="1024" stroke="white" stroke-width="5"/>
<line x1="801.89" y1="1.01848e-07" x2="801.89" y2="1024" stroke="white" stroke-width="5"/>
<path d="M355.656 0L355.656 1024" stroke="white" stroke-width="5"/>
<line x1="508.344" y1="1.01848e-07" x2="508.344" y2="1024" stroke="white" stroke-width="5"/>
<path d="M205.47 0L205.47 1024" stroke="white" stroke-width="5"/>
</svg>
