<svg width="854" height="1024" viewBox="0 0 854 1024" fill="none" xmlns="http://www.w3.org/2000/svg">
<rect x="24.563" y="126.289" width="805.544" height="64.8531" rx="15" fill="white"/>
<path d="M435.031 179.593C433.031 179.593 431.23 179.195 429.628 178.399C428.025 177.604 426.741 176.513 425.775 175.127C424.809 173.74 424.281 172.161 424.19 170.388H428.281C428.44 171.968 429.156 173.274 430.429 174.308C431.713 175.331 433.247 175.843 435.031 175.843C436.463 175.843 437.736 175.507 438.849 174.837C439.974 174.166 440.855 173.246 441.491 172.075C442.139 170.894 442.463 169.558 442.463 168.07C442.463 166.547 442.128 165.189 441.457 163.996C440.798 162.791 439.889 161.843 438.73 161.149C437.571 160.456 436.247 160.104 434.758 160.093C433.69 160.081 432.594 160.246 431.469 160.587C430.344 160.916 429.417 161.343 428.69 161.865L424.736 161.388L426.849 144.206H444.986V147.956H430.395L429.167 158.252H429.372C430.088 157.683 430.986 157.212 432.065 156.837C433.145 156.462 434.27 156.274 435.44 156.274C437.576 156.274 439.48 156.786 441.15 157.808C442.832 158.82 444.15 160.206 445.105 161.968C446.071 163.729 446.554 165.74 446.554 168.002C446.554 170.229 446.054 172.218 445.054 173.968C444.065 175.706 442.701 177.081 440.963 178.093C439.224 179.093 437.247 179.593 435.031 179.593Z" fill="black"/>
<path d="M693.574 630.93C693.574 654.494 674.471 673.597 650.907 673.597C627.343 673.597 608.241 654.494 608.241 630.93C608.241 607.366 627.343 588.264 650.907 588.264C674.471 588.264 693.574 607.366 693.574 630.93Z" fill="white"/>
<path d="M400.028 630.93C400.028 654.494 380.926 673.597 357.362 673.597C333.798 673.597 314.695 654.494 314.695 630.93C314.695 607.366 333.798 588.264 357.362 588.264C380.926 588.264 400.028 607.366 400.028 630.93Z" fill="white"/>
<rect x="0.669922" y="20" width="853.33" height="10" fill="#747474"/>
<rect x="0.669922" y="768" width="853.333" height="10" fill="#747474"/>
<rect x="0.669922" y="269.652" width="853.333" height="10" fill="#747474"/>
<rect x="0.669922" y="518.826" width="853.333" height="10" fill="#747474"/>
<rect width="853.333" height="10" transform="matrix(1 0 0 -1 0.669922 1024)" fill="#747474"/>
<line x1="655.117" y1="1.01848e-07" x2="655.117" y2="1024" stroke="white" stroke-width="5"/>
<line x1="54.3701" y1="1.01848e-07" x2="54.3701" y2="1024" stroke="white" stroke-width="5"/>
<line x1="801.89" y1="1.01848e-07" x2="801.89" y2="1024" stroke="white" stroke-width="5"/>
<path d="M355.657 0L355.657 1024" stroke="white" stroke-width="5"/>
<line x1="508.343" y1="1.01848e-07" x2="508.343" y2="1024" stroke="white" stroke-width="5"/>
<path d="M205.47 0L205.47 1024" stroke="white" stroke-width="5"/>
</svg>
