<svg width="854" height="1024" viewBox="0 0 854 1024" fill="none" xmlns="http://www.w3.org/2000/svg">
<path d="M840.013 390.825C840.013 414.389 820.911 433.491 797.347 433.491C773.783 433.491 754.68 414.389 754.68 390.825C754.68 367.261 773.783 348.158 797.347 348.158C820.911 348.158 840.013 367.261 840.013 390.825Z" fill="white"/>
<path d="M553.294 390.825C553.294 414.389 534.192 433.491 510.628 433.491C487.064 433.491 467.961 414.389 467.961 390.825C467.961 367.261 487.064 348.158 510.628 348.158C534.192 348.158 553.294 367.261 553.294 390.825Z" fill="white"/>
<path d="M693.24 148.479C693.24 172.043 674.138 191.146 650.574 191.146C627.01 191.146 607.907 172.043 607.907 148.479C607.907 124.915 627.01 105.812 650.574 105.812C674.138 105.812 693.24 124.915 693.24 148.479Z" fill="white"/>
<rect x="0.336426" width="853.33" height="30.7199" fill="white"/>
<rect x="0.336426" y="768" width="853.333" height="10" fill="#747474"/>
<rect x="0.336426" y="269.652" width="853.333" height="10" fill="#747474"/>
<rect x="0.336426" y="518.826" width="853.333" height="10" fill="#747474"/>
<rect width="853.333" height="10" transform="matrix(1 0 0 -1 0.336426 1024)" fill="#747474"/>
<line x1="654.783" y1="1.01848e-07" x2="654.783" y2="1024" stroke="white" stroke-width="5"/>
<line x1="54.0366" y1="1.01848e-07" x2="54.0366" y2="1024" stroke="white" stroke-width="5"/>
<line x1="801.557" y1="1.01848e-07" x2="801.557" y2="1024" stroke="white" stroke-width="5"/>
<path d="M355.323 0L355.323 1024" stroke="white" stroke-width="5"/>
<line x1="508.01" y1="1.01848e-07" x2="508.01" y2="1024" stroke="white" stroke-width="5"/>
<path d="M205.137 0L205.137 1024" stroke="white" stroke-width="5"/>
</svg>
