<svg width="854" height="1024" viewBox="0 0 854 1024" fill="none" xmlns="http://www.w3.org/2000/svg">
<path d="M556.881 660.237C556.881 683.801 537.778 702.903 514.214 702.903C490.65 702.903 471.548 683.801 471.548 660.237C471.548 636.673 490.65 617.57 514.214 617.57C537.778 617.57 556.881 636.673 556.881 660.237Z" fill="white"/>
<path d="M406.695 660.237C406.695 683.801 387.592 702.903 364.028 702.903C340.464 702.903 321.362 683.801 321.362 660.237C321.362 636.673 340.464 617.57 364.028 617.57C387.592 617.57 406.695 636.673 406.695 660.237Z" fill="white"/>
<circle cx="660.987" cy="404.239" r="42.6665" fill="white"/>
<rect x="24.0032" y="114.16" width="805.544" height="64.8531" rx="15" fill="white"/>
<path d="M434.471 167.464C432.471 167.464 430.67 167.066 429.068 166.27C427.465 165.475 426.181 164.384 425.215 162.998C424.249 161.611 423.721 160.032 423.63 158.259H427.721C427.88 159.839 428.596 161.145 429.869 162.18C431.153 163.202 432.687 163.714 434.471 163.714C435.903 163.714 437.176 163.378 438.289 162.708C439.414 162.037 440.295 161.117 440.931 159.947C441.579 158.765 441.903 157.43 441.903 155.941C441.903 154.418 441.568 153.06 440.897 151.867C440.238 150.662 439.329 149.714 438.17 149.02C437.011 148.327 435.687 147.975 434.198 147.964C433.13 147.952 432.033 148.117 430.908 148.458C429.783 148.787 428.857 149.214 428.13 149.736L424.176 149.259L426.289 132.077H444.426V135.827H429.835L428.607 146.123H428.812C429.528 145.555 430.426 145.083 431.505 144.708C432.585 144.333 433.71 144.145 434.88 144.145C437.016 144.145 438.92 144.657 440.59 145.68C442.272 146.691 443.59 148.077 444.545 149.839C445.511 151.6 445.994 153.611 445.994 155.873C445.994 158.1 445.494 160.089 444.494 161.839C443.505 163.577 442.141 164.952 440.403 165.964C438.664 166.964 436.687 167.464 434.471 167.464Z" fill="black"/>
<rect x="0.336426" y="768" width="853.333" height="10" fill="#747474"/>
<rect x="0.336426" y="269.652" width="853.333" height="10" fill="#747474"/>
<rect x="0.333252" y="20" width="853.333" height="10" fill="#747474"/>
<rect x="0.336426" y="518.826" width="853.333" height="10" fill="#747474"/>
<rect width="853.333" height="10" transform="matrix(1 0 0 -1 0.336426 1024)" fill="#747474"/>
<line x1="654.783" y1="1.01848e-07" x2="654.783" y2="1024" stroke="white" stroke-width="5"/>
<line x1="54.0366" y1="1.01848e-07" x2="54.0366" y2="1024" stroke="white" stroke-width="5"/>
<line x1="801.557" y1="1.01848e-07" x2="801.557" y2="1024" stroke="white" stroke-width="5"/>
<path d="M355.323 0L355.323 1024" stroke="white" stroke-width="5"/>
<line x1="508.01" y1="1.01848e-07" x2="508.01" y2="1024" stroke="white" stroke-width="5"/>
<path d="M205.136 0L205.136 1024" stroke="white" stroke-width="5"/>
</svg>
