<svg width="854" height="1024" viewBox="0 0 854 1024" fill="none" xmlns="http://www.w3.org/2000/svg">
<path d="M696.32 155.305C696.32 178.869 677.218 197.972 653.654 197.972C630.09 197.972 610.987 178.869 610.987 155.305C610.987 131.741 630.09 112.639 653.654 112.639C677.218 112.639 696.32 131.741 696.32 155.305Z" fill="white"/>
<path d="M549.548 394.239C549.548 417.803 530.445 436.905 506.881 436.905C483.317 436.905 464.215 417.803 464.215 394.239C464.215 370.675 483.317 351.572 506.881 351.572C530.445 351.572 549.548 370.675 549.548 394.239Z" fill="white"/>
<path d="M843.094 155.305C843.094 178.869 823.991 197.972 800.427 197.972C776.863 197.972 757.761 178.869 757.761 155.305C757.761 131.741 776.863 112.639 800.427 112.639C823.991 112.639 843.094 131.741 843.094 155.305Z" fill="white"/>
<rect x="0.00341797" width="853.33" height="30.7199" fill="white"/>
<rect x="0.00341797" y="768" width="853.333" height="10" fill="#747474"/>
<rect x="0.00341797" y="269.652" width="853.333" height="10" fill="#747474"/>
<rect x="0.00341797" y="518.826" width="853.333" height="10" fill="#747474"/>
<rect width="853.333" height="10" transform="matrix(1 0 0 -1 0.00341797 1024)" fill="#747474"/>
<line x1="654.45" y1="1.01848e-07" x2="654.45" y2="1024" stroke="white" stroke-width="5"/>
<line x1="53.7036" y1="1.01848e-07" x2="53.7036" y2="1024" stroke="white" stroke-width="5"/>
<line x1="801.224" y1="1.01848e-07" x2="801.224" y2="1024" stroke="white" stroke-width="5"/>
<path d="M354.99 0L354.99 1024" stroke="white" stroke-width="5"/>
<line x1="507.677" y1="1.01848e-07" x2="507.677" y2="1024" stroke="white" stroke-width="5"/>
<path d="M204.804 0L204.804 1024" stroke="white" stroke-width="5"/>
</svg>
