<svg width="854" height="1024" viewBox="0 0 854 1024" fill="none" xmlns="http://www.w3.org/2000/svg">
<circle cx="205" cy="889.012" r="42.6665" fill="white"/>
<circle cx="355" cy="889.012" r="42.6665" fill="white"/>
<rect x="0.333008" width="853.33" height="30.7199" fill="white"/>
<rect x="0.333008" y="768" width="853.333" height="10" fill="#747474"/>
<rect x="0.333008" y="269.652" width="853.333" height="10" fill="#747474"/>
<rect x="0.333008" y="518.826" width="853.333" height="10" fill="#747474"/>
<rect width="853.333" height="10" transform="matrix(1 0 0 -1 0.333008 1024)" fill="#747474"/>
<line x1="654.78" y1="1.01848e-07" x2="654.78" y2="1024" stroke="white" stroke-width="5"/>
<line x1="54.0332" y1="1.01848e-07" x2="54.0332" y2="1024" stroke="white" stroke-width="5"/>
<line x1="801.553" y1="1.01848e-07" x2="801.553" y2="1024" stroke="white" stroke-width="5"/>
<path d="M355.32 0L355.32 1024" stroke="white" stroke-width="5"/>
<line x1="508.006" y1="1.01848e-07" x2="508.006" y2="1024" stroke="white" stroke-width="5"/>
<path d="M205.133 0L205.133 1024" stroke="white" stroke-width="5"/>
<rect x="24.333" y="361" width="805.544" height="64.8531" rx="15" fill="white"/>
<path d="M423.892 413.826V410.758L435.415 398.144C436.767 396.667 437.881 395.383 438.756 394.292C439.631 393.19 440.278 392.156 440.699 391.19C441.131 390.213 441.347 389.19 441.347 388.122C441.347 386.894 441.051 385.832 440.46 384.934C439.881 384.036 439.085 383.343 438.074 382.855C437.062 382.366 435.926 382.122 434.665 382.122C433.324 382.122 432.153 382.4 431.153 382.957C430.165 383.502 429.398 384.269 428.852 385.258C428.318 386.247 428.051 387.406 428.051 388.735H424.028C424.028 386.69 424.5 384.894 425.443 383.349C426.386 381.803 427.67 380.599 429.295 379.735C430.932 378.872 432.767 378.44 434.801 378.44C436.847 378.44 438.659 378.872 440.239 379.735C441.818 380.599 443.057 381.764 443.954 383.23C444.852 384.695 445.301 386.326 445.301 388.122C445.301 389.406 445.068 390.661 444.602 391.889C444.148 393.105 443.352 394.463 442.216 395.963C441.091 397.451 439.528 399.269 437.528 401.417L429.687 409.803V410.076H445.915V413.826H423.892Z" fill="black"/>
</svg>
