<svg width="854" height="1024" viewBox="0 0 854 1024" fill="none" xmlns="http://www.w3.org/2000/svg">
<circle cx="356.692" cy="650.237" r="42.6665" fill="white"/>
<circle cx="506.878" cy="401.065" r="42.6665" fill="white"/>
<circle cx="206.506" cy="650.237" r="42.6665" fill="white"/>
<rect width="853.33" height="30.7199" fill="white"/>
<path d="M23.8933 129.16C23.8933 120.876 30.609 114.16 38.8933 114.16H814.437C822.721 114.16 829.437 120.876 829.437 129.16V164.013C829.437 172.298 822.721 179.013 814.437 179.013H38.8933C30.609 179.013 23.8933 172.298 23.8933 164.013V129.16Z" fill="white"/>
<rect y="768" width="853.333" height="10" fill="#747474"/>
<rect y="269.652" width="853.333" height="10" fill="#747474"/>
<rect y="518.826" width="853.333" height="10" fill="#747474"/>
<rect width="853.333" height="10" transform="matrix(1 0 0 -1 0 1024)" fill="#747474"/>
<line x1="654.447" y1="1.01848e-07" x2="654.447" y2="1024" stroke="white" stroke-width="5"/>
<line x1="53.7" y1="1.01848e-07" x2="53.6999" y2="1024" stroke="white" stroke-width="5"/>
<line x1="801.22" y1="1.01848e-07" x2="801.22" y2="1024" stroke="white" stroke-width="5"/>
<path d="M354.987 0L354.987 1024" stroke="white" stroke-width="5"/>
<line x1="507.673" y1="1.01848e-07" x2="507.673" y2="1024" stroke="white" stroke-width="5"/>
<path d="M204.8 0L204.8 1024" stroke="white" stroke-width="5"/>
</svg>
