<svg width="854" height="1024" viewBox="0 0 854 1024" fill="none" xmlns="http://www.w3.org/2000/svg">
<rect x="24.5598" y="114.16" width="805.544" height="64.8531" rx="15" fill="white"/>
<path d="M435.914 167.464C433.664 167.464 431.658 167.077 429.897 166.305C428.147 165.532 426.755 164.458 425.721 163.083C424.698 161.697 424.141 160.089 424.05 158.259H428.346C428.437 159.384 428.823 160.356 429.505 161.174C430.187 161.981 431.079 162.606 432.181 163.049C433.283 163.492 434.505 163.714 435.846 163.714C437.346 163.714 438.675 163.452 439.834 162.93C440.994 162.407 441.903 161.68 442.562 160.748C443.221 159.816 443.55 158.736 443.55 157.509C443.55 156.225 443.232 155.094 442.596 154.117C441.959 153.128 441.028 152.356 439.8 151.799C438.573 151.242 437.073 150.964 435.3 150.964H432.505V147.214H435.3C436.687 147.214 437.903 146.964 438.948 146.464C440.005 145.964 440.829 145.259 441.42 144.35C442.022 143.441 442.323 142.373 442.323 141.145C442.323 139.964 442.062 138.935 441.539 138.06C441.016 137.185 440.278 136.503 439.323 136.015C438.38 135.526 437.266 135.282 435.982 135.282C434.778 135.282 433.641 135.503 432.573 135.947C431.516 136.378 430.653 137.009 429.982 137.839C429.312 138.657 428.948 139.645 428.891 140.805H424.8C424.869 138.975 425.42 137.373 426.454 135.998C427.488 134.611 428.84 133.532 430.511 132.759C432.192 131.986 434.039 131.6 436.05 131.6C438.209 131.6 440.062 132.037 441.607 132.912C443.153 133.776 444.34 134.918 445.17 136.339C445.999 137.759 446.414 139.293 446.414 140.941C446.414 142.907 445.897 144.583 444.863 145.969C443.84 147.356 442.448 148.316 440.687 148.85V149.123C442.891 149.486 444.613 150.424 445.851 151.935C447.09 153.435 447.709 155.293 447.709 157.509C447.709 159.407 447.192 161.111 446.158 162.623C445.136 164.123 443.738 165.305 441.965 166.168C440.192 167.032 438.175 167.464 435.914 167.464Z" fill="black"/>
<path d="M550.211 374.932C550.211 398.496 531.108 417.599 507.544 417.599C483.98 417.599 464.878 398.496 464.878 374.932C464.878 351.368 483.98 332.266 507.544 332.266C531.108 332.266 550.211 351.368 550.211 374.932Z" fill="white"/>
<path d="M246.426 630.93C246.426 654.494 227.323 673.597 203.759 673.597C180.195 673.597 161.093 654.494 161.093 630.93C161.093 607.366 180.195 588.264 203.759 588.264C227.323 588.264 246.426 607.366 246.426 630.93Z" fill="white"/>
<rect x="0.666504" y="20" width="853.33" height="10" fill="#747474"/>
<rect x="0.666504" y="768" width="853.333" height="10" fill="#747474"/>
<rect x="0.666504" y="269.652" width="853.333" height="10" fill="#747474"/>
<rect x="0.666504" y="518.826" width="853.333" height="10" fill="#747474"/>
<rect width="853.333" height="10" transform="matrix(1 0 0 -1 0.666504 1024)" fill="#747474"/>
<line x1="655.113" y1="1.01848e-07" x2="655.113" y2="1024" stroke="white" stroke-width="5"/>
<line x1="54.3665" y1="1.01848e-07" x2="54.3664" y2="1024" stroke="white" stroke-width="5"/>
<line x1="801.887" y1="1.01848e-07" x2="801.887" y2="1024" stroke="white" stroke-width="5"/>
<path d="M355.653 0L355.653 1024" stroke="white" stroke-width="5"/>
<line x1="508.34" y1="1.01848e-07" x2="508.34" y2="1024" stroke="white" stroke-width="5"/>
<path d="M205.467 0L205.467 1024" stroke="white" stroke-width="5"/>
</svg>
