<svg width="854" height="1024" viewBox="0 0 854 1024" fill="none" xmlns="http://www.w3.org/2000/svg">
<path d="M249.506 630.93C249.506 654.494 230.403 673.597 206.839 673.597C183.275 673.597 164.173 654.494 164.173 630.93C164.173 607.366 183.275 588.264 206.839 588.264C230.403 588.264 249.506 607.366 249.506 630.93Z" fill="white"/>
<path d="M399.692 630.93C399.692 654.494 380.589 673.597 357.025 673.597C333.461 673.597 314.359 654.494 314.359 630.93C314.359 607.366 333.461 588.264 357.025 588.264C380.589 588.264 399.692 607.366 399.692 630.93Z" fill="white"/>
<rect x="0.333252" y="20" width="853.33" height="10" fill="#747474"/>
<rect x="24.2266" y="114.16" width="805.544" height="64.8531" rx="15" fill="white"/>
<path d="M428.742 167.477C426.492 167.477 424.487 167.091 422.725 166.318C420.975 165.545 419.583 164.472 418.549 163.097C417.526 161.71 416.97 160.102 416.879 158.273H421.174C421.265 159.398 421.651 160.369 422.333 161.188C423.015 161.994 423.907 162.619 425.009 163.062C426.112 163.506 427.333 163.727 428.674 163.727C430.174 163.727 431.504 163.466 432.663 162.943C433.822 162.42 434.731 161.693 435.39 160.761C436.049 159.83 436.379 158.75 436.379 157.523C436.379 156.239 436.061 155.108 435.424 154.131C434.788 153.142 433.856 152.369 432.629 151.812C431.401 151.256 429.901 150.977 428.129 150.977H425.333V147.227H428.129C429.515 147.227 430.731 146.977 431.776 146.477C432.833 145.977 433.657 145.273 434.248 144.364C434.85 143.455 435.151 142.386 435.151 141.159C435.151 139.977 434.89 138.949 434.367 138.074C433.845 137.199 433.106 136.517 432.151 136.028C431.208 135.54 430.095 135.295 428.811 135.295C427.606 135.295 426.47 135.517 425.401 135.96C424.345 136.392 423.481 137.023 422.811 137.852C422.14 138.67 421.776 139.659 421.72 140.818H417.629C417.697 138.989 418.248 137.386 419.282 136.011C420.316 134.625 421.668 133.545 423.339 132.773C425.021 132 426.867 131.614 428.879 131.614C431.038 131.614 432.89 132.051 434.436 132.926C435.981 133.79 437.168 134.932 437.998 136.352C438.828 137.773 439.242 139.307 439.242 140.955C439.242 142.92 438.725 144.597 437.691 145.983C436.668 147.369 435.276 148.33 433.515 148.864V149.136C435.72 149.5 437.441 150.437 438.68 151.949C439.918 153.449 440.538 155.307 440.538 157.523C440.538 159.42 440.021 161.125 438.987 162.636C437.964 164.136 436.566 165.318 434.793 166.182C433.021 167.045 431.004 167.477 428.742 167.477Z" fill="black"/>
<rect x="0.333252" y="768" width="853.333" height="10" fill="#747474"/>
<rect x="0.333252" y="269.652" width="853.333" height="10" fill="#747474"/>
<rect x="0.333252" y="518.826" width="853.333" height="10" fill="#747474"/>
<rect width="853.333" height="10" transform="matrix(1 0 0 -1 0.333252 1024)" fill="#747474"/>
<line x1="654.78" y1="1.01848e-07" x2="654.78" y2="1024" stroke="white" stroke-width="5"/>
<line x1="54.0332" y1="1.01848e-07" x2="54.0332" y2="1024" stroke="white" stroke-width="5"/>
<line x1="801.553" y1="1.01848e-07" x2="801.553" y2="1024" stroke="white" stroke-width="5"/>
<path d="M355.32 0L355.32 1024" stroke="white" stroke-width="5"/>
<line x1="508.007" y1="1.01848e-07" x2="508.007" y2="1024" stroke="white" stroke-width="5"/>
<path d="M205.133 0L205.133 1024" stroke="white" stroke-width="5"/>
</svg>
