<svg width="854" height="1024" viewBox="0 0 854 1024" fill="none" xmlns="http://www.w3.org/2000/svg">
<path d="M247.172 630.93C247.172 654.494 228.07 673.597 204.506 673.597C180.942 673.597 161.839 654.494 161.839 630.93C161.839 607.366 180.942 588.264 204.506 588.264C228.07 588.264 247.172 607.366 247.172 630.93Z" fill="white"/>
<rect y="20" width="853.33" height="10" fill="#747474"/>
<rect x="23.8933" y="114.16" width="805.544" height="64.8531" rx="15" fill="white"/>
<path d="M428.409 167.477C426.159 167.477 424.153 167.091 422.392 166.318C420.642 165.545 419.25 164.472 418.216 163.097C417.193 161.71 416.636 160.102 416.545 158.273H420.841C420.932 159.398 421.318 160.369 422 161.188C422.682 161.994 423.574 162.619 424.676 163.062C425.778 163.506 427 163.727 428.341 163.727C429.841 163.727 431.17 163.466 432.33 162.943C433.489 162.42 434.398 161.693 435.057 160.761C435.716 159.83 436.045 158.75 436.045 157.523C436.045 156.239 435.727 155.108 435.091 154.131C434.455 153.142 433.523 152.369 432.295 151.812C431.068 151.256 429.568 150.977 427.795 150.977H425V147.227H427.795C429.182 147.227 430.398 146.977 431.443 146.477C432.5 145.977 433.324 145.273 433.915 144.364C434.517 143.455 434.818 142.386 434.818 141.159C434.818 139.977 434.557 138.949 434.034 138.074C433.511 137.199 432.773 136.517 431.818 136.028C430.875 135.54 429.761 135.295 428.477 135.295C427.273 135.295 426.136 135.517 425.068 135.96C424.011 136.392 423.148 137.023 422.477 137.852C421.807 138.67 421.443 139.659 421.386 140.818H417.295C417.364 138.989 417.915 137.386 418.949 136.011C419.983 134.625 421.335 133.545 423.006 132.773C424.688 132 426.534 131.614 428.545 131.614C430.705 131.614 432.557 132.051 434.102 132.926C435.648 133.79 436.835 134.932 437.665 136.352C438.494 137.773 438.909 139.307 438.909 140.955C438.909 142.92 438.392 144.597 437.358 145.983C436.335 147.369 434.943 148.33 433.182 148.864V149.136C435.386 149.5 437.108 150.437 438.347 151.949C439.585 153.449 440.205 155.307 440.205 157.523C440.205 159.42 439.688 161.125 438.653 162.636C437.631 164.136 436.233 165.318 434.46 166.182C432.688 167.045 430.67 167.477 428.409 167.477Z" fill="black"/>
<rect y="768" width="853.333" height="10" fill="#747474"/>
<rect y="269.652" width="853.333" height="10" fill="#747474"/>
<rect y="518.826" width="853.333" height="10" fill="#747474"/>
<rect width="853.333" height="10" transform="matrix(1 0 0 -1 0 1024)" fill="#747474"/>
<line x1="654.447" y1="1.01848e-07" x2="654.447" y2="1024" stroke="white" stroke-width="5"/>
<line x1="53.7" y1="1.01848e-07" x2="53.6999" y2="1024" stroke="white" stroke-width="5"/>
<line x1="801.22" y1="1.01848e-07" x2="801.22" y2="1024" stroke="white" stroke-width="5"/>
<path d="M354.987 0L354.987 1024" stroke="white" stroke-width="5"/>
<line x1="507.673" y1="1.01848e-07" x2="507.673" y2="1024" stroke="white" stroke-width="5"/>
<path d="M204.8 0L204.8 1024" stroke="white" stroke-width="5"/>
</svg>
