<svg width="854" height="1024" viewBox="0 0 854 1024" fill="none" xmlns="http://www.w3.org/2000/svg">
<path d="M550.211 913.063C550.211 936.627 531.108 955.729 507.544 955.729C483.98 955.729 464.878 936.627 464.878 913.063C464.878 889.499 483.98 870.396 507.544 870.396C531.108 870.396 550.211 889.499 550.211 913.063Z" fill="white"/>
<path d="M696.984 657.065C696.984 680.629 677.881 699.731 654.317 699.731C630.753 699.731 611.651 680.629 611.651 657.065C611.651 633.501 630.753 614.398 654.317 614.398C677.881 614.398 696.984 633.501 696.984 657.065Z" fill="white"/>
<path d="M400.025 913.063C400.025 936.627 380.922 955.729 357.358 955.729C333.794 955.729 314.692 936.627 314.692 913.063C314.692 889.499 333.794 870.396 357.358 870.396C380.922 870.396 400.025 889.499 400.025 913.063Z" fill="white"/>
<rect x="0.666504" width="853.33" height="30.7199" fill="white"/>
<rect x="0.666504" y="768" width="853.333" height="10" fill="#747474"/>
<rect x="0.666504" y="269.652" width="853.333" height="10" fill="#747474"/>
<rect x="0.666504" y="518.826" width="853.333" height="10" fill="#747474"/>
<rect width="853.333" height="10" transform="matrix(1 0 0 -1 0.666504 1024)" fill="#747474"/>
<line x1="655.113" y1="1.01848e-07" x2="655.113" y2="1024" stroke="white" stroke-width="5"/>
<line x1="54.3665" y1="1.01848e-07" x2="54.3664" y2="1024" stroke="white" stroke-width="5"/>
<line x1="801.887" y1="1.01848e-07" x2="801.887" y2="1024" stroke="white" stroke-width="5"/>
<path d="M355.653 0L355.653 1024" stroke="white" stroke-width="5"/>
<line x1="508.34" y1="1.01848e-07" x2="508.34" y2="1024" stroke="white" stroke-width="5"/>
<path d="M205.467 0L205.467 1024" stroke="white" stroke-width="5"/>
<rect x="25" y="361" width="805.544" height="64.8531" rx="15" fill="white"/>
<path d="M424.559 413.826V410.758L436.082 398.144C437.434 396.667 438.548 395.383 439.423 394.292C440.298 393.19 440.945 392.156 441.366 391.19C441.798 390.213 442.013 389.19 442.013 388.122C442.013 386.894 441.718 385.832 441.127 384.934C440.548 384.036 439.752 383.343 438.741 382.855C437.729 382.366 436.593 382.122 435.332 382.122C433.991 382.122 432.82 382.4 431.82 382.957C430.832 383.502 430.065 384.269 429.519 385.258C428.985 386.247 428.718 387.406 428.718 388.735H424.695C424.695 386.69 425.167 384.894 426.11 383.349C427.053 381.803 428.337 380.599 429.962 379.735C431.599 378.872 433.434 378.44 435.468 378.44C437.513 378.44 439.326 378.872 440.906 379.735C442.485 380.599 443.724 381.764 444.621 383.23C445.519 384.695 445.968 386.326 445.968 388.122C445.968 389.406 445.735 390.661 445.269 391.889C444.815 393.105 444.019 394.463 442.883 395.963C441.758 397.451 440.195 399.269 438.195 401.417L430.354 409.803V410.076H446.582V413.826H424.559Z" fill="black"/>
</svg>
