<svg width="854" height="1024" viewBox="0 0 854 1024" fill="none" xmlns="http://www.w3.org/2000/svg">
<path d="M396.278 899.411C396.278 922.975 377.176 942.077 353.612 942.077C330.048 942.077 310.945 922.975 310.945 899.411C310.945 875.847 330.048 856.744 353.612 856.744C377.176 856.744 396.278 875.847 396.278 899.411Z" fill="white"/>
<path d="M696.651 646.825C696.651 670.389 677.548 689.491 653.984 689.491C630.42 689.491 611.318 670.389 611.318 646.825C611.318 623.261 630.42 604.158 653.984 604.158C677.548 604.158 696.651 623.261 696.651 646.825Z" fill="white"/>
<rect x="0.333252" width="853.33" height="30.7199" fill="white"/>
<rect x="0.333252" y="768" width="853.333" height="10" fill="#747474"/>
<rect x="0.333252" y="269.652" width="853.333" height="10" fill="#747474"/>
<rect x="0.333252" y="518.826" width="853.333" height="10" fill="#747474"/>
<rect width="853.333" height="10" transform="matrix(1 0 0 -1 0.333252 1024)" fill="#747474"/>
<line x1="654.78" y1="1.01848e-07" x2="654.78" y2="1024" stroke="white" stroke-width="5"/>
<line x1="54.0332" y1="1.01848e-07" x2="54.0332" y2="1024" stroke="white" stroke-width="5"/>
<line x1="801.553" y1="1.01848e-07" x2="801.553" y2="1024" stroke="white" stroke-width="5"/>
<path d="M355.32 0L355.32 1024" stroke="white" stroke-width="5"/>
<line x1="508.007" y1="1.01848e-07" x2="508.007" y2="1024" stroke="white" stroke-width="5"/>
<path d="M205.133 0L205.133 1024" stroke="white" stroke-width="5"/>
<rect x="25" y="361" width="805.544" height="64.8531" rx="15" fill="white"/>
<path d="M424.559 413.826V410.758L436.081 398.144C437.434 396.667 438.547 395.383 439.422 394.292C440.297 393.19 440.945 392.156 441.366 391.19C441.797 390.213 442.013 389.19 442.013 388.122C442.013 386.894 441.718 385.832 441.127 384.934C440.547 384.036 439.752 383.343 438.741 382.855C437.729 382.366 436.593 382.122 435.331 382.122C433.991 382.122 432.82 382.4 431.82 382.957C430.831 383.502 430.064 384.269 429.519 385.258C428.985 386.247 428.718 387.406 428.718 388.735H424.695C424.695 386.69 425.167 384.894 426.11 383.349C427.053 381.803 428.337 380.599 429.962 379.735C431.598 378.872 433.434 378.44 435.468 378.44C437.513 378.44 439.326 378.872 440.905 379.735C442.485 380.599 443.723 381.764 444.621 383.23C445.519 384.695 445.968 386.326 445.968 388.122C445.968 389.406 445.735 390.661 445.269 391.889C444.814 393.105 444.019 394.463 442.883 395.963C441.758 397.451 440.195 399.269 438.195 401.417L430.354 409.803V410.076H446.581V413.826H424.559Z" fill="black"/>
</svg>
