<svg width="854" height="1024" viewBox="0 0 854 1024" fill="none" xmlns="http://www.w3.org/2000/svg">
<ellipse cx="503.466" cy="397.653" rx="42.6667" ry="42.6667" fill="black"/>
<ellipse cx="356.694" cy="646.827" rx="42.6667" ry="42.6667" fill="black"/>
<ellipse cx="206.507" cy="646.827" rx="42.6667" ry="42.6667" fill="black"/>
<rect x="23.8936" y="114.16" width="805.547" height="64.8533" rx="15" fill="black"/>
<path d="M427.523 166.584C425.523 166.584 423.722 166.186 422.119 165.391C420.517 164.595 419.233 163.504 418.267 162.118C417.301 160.732 416.773 159.152 416.682 157.379H420.773C420.932 158.959 421.648 160.266 422.92 161.3C424.205 162.323 425.739 162.834 427.523 162.834C428.955 162.834 430.227 162.499 431.341 161.828C432.466 161.158 433.347 160.237 433.983 159.067C434.631 157.885 434.955 156.55 434.955 155.061C434.955 153.538 434.619 152.181 433.949 150.987C433.29 149.783 432.381 148.834 431.222 148.141C430.063 147.448 428.739 147.095 427.25 147.084C426.182 147.073 425.085 147.237 423.96 147.578C422.835 147.908 421.909 148.334 421.182 148.857L417.227 148.379L419.341 131.198H437.477V134.948H422.886L421.659 145.243H421.864C422.58 144.675 423.477 144.203 424.557 143.828C425.636 143.453 426.761 143.266 427.932 143.266C430.068 143.266 431.972 143.777 433.642 144.8C435.324 145.811 436.642 147.198 437.597 148.959C438.562 150.72 439.045 152.732 439.045 154.993C439.045 157.22 438.545 159.209 437.545 160.959C436.557 162.698 435.193 164.073 433.455 165.084C431.716 166.084 429.739 166.584 427.523 166.584Z" fill="white"/>
<rect y="20" width="853.333" height="10" fill="#9B9B9B"/>
<rect y="768" width="853.333" height="10" fill="#9B9B9B"/>
<rect y="269.653" width="853.333" height="10" fill="#9B9B9B"/>
<rect y="518.827" width="853.333" height="10" fill="#9B9B9B"/>
<rect width="853.333" height="10" transform="matrix(1 0 0 -1 0 1024)" fill="#9B9B9B"/>
<line x1="654.447" y1="1.01848e-07" x2="654.447" y2="1024" stroke="black" stroke-width="5"/>
<line x1="53.7002" y1="1.01848e-07" x2="53.7001" y2="1024" stroke="black" stroke-width="5"/>
<line x1="801.22" y1="1.01848e-07" x2="801.22" y2="1024" stroke="black" stroke-width="5"/>
<path d="M354.987 0L354.987 1024" stroke="black" stroke-width="5"/>
<line x1="507.673" y1="1.01848e-07" x2="507.673" y2="1024" stroke="black" stroke-width="5"/>
<path d="M204.8 0L204.8 1024" stroke="black" stroke-width="5"/>
</svg>
