<svg width="854" height="1024" viewBox="0 0 854 1024" fill="none" xmlns="http://www.w3.org/2000/svg">
<rect x="23.8933" y="114.16" width="805.547" height="64.8533" rx="15" fill="black"/>
<path d="M427.523 167.171C425.523 167.171 423.722 166.773 422.119 165.977C420.517 165.182 419.233 164.091 418.267 162.705C417.301 161.318 416.773 159.739 416.682 157.966H420.773C420.932 159.546 421.648 160.852 422.92 161.887C424.205 162.909 425.739 163.421 427.523 163.421C428.955 163.421 430.227 163.085 431.341 162.415C432.466 161.744 433.347 160.824 433.983 159.654C434.631 158.472 434.955 157.137 434.955 155.648C434.955 154.125 434.619 152.767 433.949 151.574C433.29 150.369 432.381 149.421 431.222 148.727C430.063 148.034 428.739 147.682 427.25 147.671C426.182 147.659 425.085 147.824 423.96 148.165C422.835 148.494 421.909 148.921 421.182 149.443L417.227 148.966L419.341 131.784H437.477V135.534H422.886L421.659 145.83H421.864C422.58 145.262 423.477 144.79 424.557 144.415C425.636 144.04 426.761 143.852 427.932 143.852C430.068 143.852 431.972 144.364 433.642 145.387C435.324 146.398 436.642 147.784 437.597 149.546C438.562 151.307 439.045 153.318 439.045 155.58C439.045 157.807 438.545 159.796 437.545 161.546C436.557 163.284 435.193 164.659 433.455 165.671C431.716 166.671 429.739 167.171 427.523 167.171Z" fill="white"/>
<path d="M550.133 397.653C550.133 421.217 531.031 440.32 507.467 440.32C483.903 440.32 464.8 421.217 464.8 397.653C464.8 374.089 483.903 354.987 507.467 354.987C531.031 354.987 550.133 374.089 550.133 397.653Z" fill="black"/>
<path d="M249.173 650.24C249.173 673.804 230.071 692.907 206.507 692.907C182.942 692.907 163.84 673.804 163.84 650.24C163.84 626.676 182.942 607.573 206.507 607.573C230.071 607.573 249.173 626.676 249.173 650.24Z" fill="black"/>
<rect y="20" width="853.333" height="10" fill="#9B9B9B"/>
<rect y="768" width="853.333" height="10" fill="#9B9B9B"/>
<rect y="270" width="853.333" height="10" fill="#9B9B9B"/>
<rect y="518.827" width="853.333" height="10" fill="#9B9B9B"/>
<rect width="853.333" height="10" transform="matrix(1 0 0 -1 0 1024)" fill="#9B9B9B"/>
<line x1="654.447" y1="1.01848e-07" x2="654.447" y2="1024" stroke="black" stroke-width="5"/>
<line x1="53.7001" y1="1.01848e-07" x2="53.7" y2="1024" stroke="black" stroke-width="5"/>
<line x1="801.22" y1="1.01848e-07" x2="801.22" y2="1024" stroke="black" stroke-width="5"/>
<path d="M354.987 0L354.987 1024" stroke="black" stroke-width="5"/>
<line x1="507.673" y1="1.01848e-07" x2="507.673" y2="1024" stroke="black" stroke-width="5"/>
<path d="M204.8 0L204.8 1024" stroke="black" stroke-width="5"/>
</svg>
