<svg width="854" height="1024" viewBox="0 0 854 1024" fill="none" xmlns="http://www.w3.org/2000/svg">
<path d="M693.24 397.653C693.24 421.217 674.137 440.32 650.573 440.32C627.009 440.32 607.906 421.217 607.906 397.653C607.906 374.089 627.009 354.987 650.573 354.987C674.137 354.987 693.24 374.089 693.24 397.653Z" fill="black"/>
<path d="M399.693 397.653C399.693 421.217 380.591 440.32 357.027 440.32C333.462 440.32 314.36 421.217 314.36 397.653C314.36 374.089 333.462 354.987 357.027 354.987C380.591 354.987 399.693 374.089 399.693 397.653Z" fill="black"/>
<rect x="0.333252" width="853.333" height="30.72" fill="black"/>
<rect x="0.333252" y="768" width="853.333" height="10" fill="#9B9B9B"/>
<rect x="0.333252" y="269.653" width="853.333" height="10" fill="#9B9B9B"/>
<rect x="0.333252" y="518.827" width="853.333" height="10" fill="#9B9B9B"/>
<rect width="853.333" height="10" transform="matrix(1 0 0 -1 0.333252 1024)" fill="#9B9B9B"/>
<line x1="654.78" y1="1.01848e-07" x2="654.78" y2="1024" stroke="black" stroke-width="5"/>
<line x1="54.0332" y1="1.01848e-07" x2="54.0332" y2="1024" stroke="black" stroke-width="5"/>
<line x1="801.553" y1="1.01848e-07" x2="801.553" y2="1024" stroke="black" stroke-width="5"/>
<path d="M355.32 0L355.32 1024" stroke="black" stroke-width="5"/>
<line x1="508.007" y1="1.01848e-07" x2="508.007" y2="1024" stroke="black" stroke-width="5"/>
<path d="M205.133 0L205.133 1024" stroke="black" stroke-width="5"/>
</svg>
