<svg width="854" height="1024" viewBox="0 0 854 1024" fill="none" xmlns="http://www.w3.org/2000/svg">
<path d="M842 648.667C842 672.231 822.897 691.333 799.333 691.333C775.769 691.333 756.667 672.231 756.667 648.667C756.667 625.103 775.769 606 799.333 606C822.897 606 842 625.103 842 648.667Z" fill="black"/>
<path d="M695 153.667C695 177.231 675.897 196.333 652.333 196.333C628.769 196.333 609.667 177.231 609.667 153.667C609.667 130.103 628.769 111 652.333 111C675.897 111 695 130.103 695 153.667Z" fill="black"/>
<path d="M400.026 397.653C400.026 421.217 380.924 440.32 357.36 440.32C333.796 440.32 314.693 421.217 314.693 397.653C314.693 374.089 333.796 354.987 357.36 354.987C380.924 354.987 400.026 374.089 400.026 397.653Z" fill="black"/>
<rect x="0.666504" width="853.333" height="30.72" fill="black"/>
<rect x="0.666504" y="768" width="853.333" height="10" fill="#9B9B9B"/>
<rect x="0.666504" y="269.653" width="853.333" height="10" fill="#9B9B9B"/>
<rect x="0.666504" y="518.827" width="853.333" height="10" fill="#9B9B9B"/>
<rect width="853.333" height="10" transform="matrix(1 0 0 -1 0.666504 1024)" fill="#9B9B9B"/>
<line x1="655.113" y1="1.01848e-07" x2="655.113" y2="1024" stroke="black" stroke-width="5"/>
<line x1="54.3665" y1="1.01848e-07" x2="54.3664" y2="1024" stroke="black" stroke-width="5"/>
<line x1="801.887" y1="1.01848e-07" x2="801.887" y2="1024" stroke="black" stroke-width="5"/>
<path d="M355.653 0L355.653 1024" stroke="black" stroke-width="5"/>
<line x1="508.34" y1="1.01848e-07" x2="508.34" y2="1024" stroke="black" stroke-width="5"/>
<path d="M205.467 0L205.467 1024" stroke="black" stroke-width="5"/>
</svg>
