<svg width="854" height="1024" viewBox="0 0 854 1024" fill="none" xmlns="http://www.w3.org/2000/svg">
<path d="M696.317 627.518C696.317 651.082 677.215 670.184 653.651 670.184C630.087 670.184 610.984 651.082 610.984 627.518C610.984 603.954 630.087 584.851 653.651 584.851C677.215 584.851 696.317 603.954 696.317 627.518Z" fill="black"/>
<circle cx="506.878" cy="627.518" r="42.6665" fill="black"/>
<circle cx="353.279" cy="627.518" r="42.6665" fill="black"/>
<rect x="23.8931" y="96.7463" width="805.544" height="64.8531" rx="15" fill="black"/>
<path d="M435.247 150.05C432.997 150.05 430.992 149.664 429.23 148.891C427.48 148.118 426.088 147.045 425.054 145.67C424.032 144.283 423.475 142.675 423.384 140.846H427.679C427.77 141.971 428.157 142.942 428.838 143.76C429.52 144.567 430.412 145.192 431.515 145.635C432.617 146.079 433.838 146.3 435.179 146.3C436.679 146.3 438.009 146.039 439.168 145.516C440.327 144.993 441.236 144.266 441.895 143.334C442.554 142.403 442.884 141.323 442.884 140.096C442.884 138.812 442.566 137.681 441.929 136.704C441.293 135.715 440.361 134.942 439.134 134.385C437.907 133.829 436.407 133.55 434.634 133.55H431.838V129.8H434.634C436.02 129.8 437.236 129.55 438.282 129.05C439.338 128.55 440.162 127.846 440.753 126.937C441.355 126.028 441.657 124.959 441.657 123.732C441.657 122.55 441.395 121.522 440.872 120.647C440.35 119.772 439.611 119.09 438.657 118.601C437.713 118.113 436.6 117.868 435.316 117.868C434.111 117.868 432.975 118.09 431.907 118.533C430.85 118.965 429.986 119.596 429.316 120.425C428.645 121.243 428.282 122.232 428.225 123.391H424.134C424.202 121.562 424.753 119.959 425.787 118.584C426.821 117.198 428.174 116.118 429.844 115.346C431.526 114.573 433.372 114.187 435.384 114.187C437.543 114.187 439.395 114.624 440.941 115.499C442.486 116.363 443.674 117.505 444.503 118.925C445.333 120.346 445.747 121.88 445.747 123.528C445.747 125.493 445.23 127.17 444.196 128.556C443.174 129.942 441.782 130.903 440.02 131.437V131.709C442.225 132.073 443.946 133.01 445.185 134.522C446.424 136.022 447.043 137.88 447.043 140.096C447.043 141.993 446.526 143.698 445.492 145.209C444.469 146.709 443.071 147.891 441.299 148.755C439.526 149.618 437.509 150.05 435.247 150.05Z" fill="white"/>
<rect y="20" width="853.33" height="10" fill="#9B9B9B"/>
<rect y="768" width="853.333" height="10" fill="#9B9B9B"/>
<rect y="269.653" width="853.333" height="10" fill="#9B9B9B"/>
<rect y="518.827" width="853.333" height="10" fill="#9B9B9B"/>
<rect width="853.333" height="10" transform="matrix(1 0 0 -1 0 1024)" fill="#9B9B9B"/>
<line x1="654.447" y1="1.01848e-07" x2="654.447" y2="1024" stroke="black" stroke-width="5"/>
<line x1="53.7002" y1="1.01848e-07" x2="53.7001" y2="1024" stroke="black" stroke-width="5"/>
<line x1="801.22" y1="1.01848e-07" x2="801.22" y2="1024" stroke="black" stroke-width="5"/>
<path d="M354.987 0L354.987 1024" stroke="black" stroke-width="5"/>
<line x1="507.673" y1="1.01848e-07" x2="507.673" y2="1024" stroke="black" stroke-width="5"/>
<path d="M204.8 0L204.8 1024" stroke="black" stroke-width="5"/>
</svg>
