<svg width="854" height="1024" viewBox="0 0 854 1024" fill="none" xmlns="http://www.w3.org/2000/svg">
<rect x="24.5598" y="100.16" width="805.544" height="64.8531" rx="15" fill="black"/>
<path d="M435.914 153.464C433.664 153.464 431.658 153.077 429.897 152.305C428.147 151.532 426.755 150.458 425.721 149.083C424.698 147.697 424.141 146.089 424.05 144.259H428.346C428.437 145.384 428.823 146.356 429.505 147.174C430.187 147.981 431.079 148.606 432.181 149.049C433.283 149.492 434.505 149.714 435.846 149.714C437.346 149.714 438.675 149.452 439.834 148.93C440.994 148.407 441.903 147.68 442.562 146.748C443.221 145.816 443.55 144.736 443.55 143.509C443.55 142.225 443.232 141.094 442.596 140.117C441.959 139.128 441.028 138.356 439.8 137.799C438.573 137.242 437.073 136.964 435.3 136.964H432.505V133.214H435.3C436.687 133.214 437.903 132.964 438.948 132.464C440.005 131.964 440.829 131.259 441.42 130.35C442.022 129.441 442.323 128.373 442.323 127.145C442.323 125.964 442.062 124.935 441.539 124.06C441.016 123.185 440.278 122.503 439.323 122.015C438.38 121.526 437.266 121.282 435.982 121.282C434.778 121.282 433.641 121.503 432.573 121.947C431.516 122.378 430.653 123.009 429.982 123.839C429.312 124.657 428.948 125.645 428.891 126.805H424.8C424.869 124.975 425.42 123.373 426.454 121.998C427.488 120.611 428.84 119.532 430.511 118.759C432.192 117.986 434.039 117.6 436.05 117.6C438.209 117.6 440.062 118.037 441.607 118.912C443.153 119.776 444.34 120.918 445.17 122.339C445.999 123.759 446.414 125.293 446.414 126.941C446.414 128.907 445.897 130.583 444.863 131.969C443.84 133.356 442.448 134.316 440.687 134.85V135.123C442.891 135.486 444.613 136.424 445.851 137.935C447.09 139.435 447.709 141.293 447.709 143.509C447.709 145.407 447.192 147.111 446.158 148.623C445.136 150.123 443.738 151.305 441.965 152.168C440.192 153.032 438.175 153.464 435.914 153.464Z" fill="white"/>
<path d="M696.984 630.931C696.984 654.495 677.881 673.597 654.317 673.597C630.753 673.597 611.651 654.495 611.651 630.931C611.651 607.367 630.753 588.264 654.317 588.264C677.881 588.264 696.984 607.367 696.984 630.931Z" fill="black"/>
<path d="M396.612 630.931C396.612 654.495 377.509 673.597 353.945 673.597C330.381 673.597 311.279 654.495 311.279 630.931C311.279 607.367 330.381 588.264 353.945 588.264C377.509 588.264 396.612 607.367 396.612 630.931Z" fill="black"/>
<rect x="0.666504" y="20" width="853.33" height="10" fill="#9B9B9B"/>
<rect x="0.666504" y="768" width="853.333" height="10" fill="#9B9B9B"/>
<rect x="0.666504" y="269.653" width="853.333" height="10" fill="#9B9B9B"/>
<rect x="0.666504" y="518.827" width="853.333" height="10" fill="#9B9B9B"/>
<rect width="853.333" height="10" transform="matrix(1 0 0 -1 0.666504 1024)" fill="#9B9B9B"/>
<line x1="655.113" y1="1.01848e-07" x2="655.113" y2="1024" stroke="black" stroke-width="5"/>
<line x1="54.3665" y1="1.01848e-07" x2="54.3664" y2="1024" stroke="black" stroke-width="5"/>
<line x1="801.887" y1="1.01848e-07" x2="801.887" y2="1024" stroke="black" stroke-width="5"/>
<path d="M355.653 0L355.653 1024" stroke="black" stroke-width="5"/>
<line x1="508.34" y1="1.01848e-07" x2="508.34" y2="1024" stroke="black" stroke-width="5"/>
<path d="M205.467 0L205.467 1024" stroke="black" stroke-width="5"/>
</svg>
