<svg width="854" height="1024" viewBox="0 0 854 1024" fill="none" xmlns="http://www.w3.org/2000/svg">
<path d="M549.878 630.931C549.878 654.495 530.775 673.597 507.211 673.597C483.647 673.597 464.545 654.495 464.545 630.931C464.545 607.367 483.647 588.264 507.211 588.264C530.775 588.264 549.878 607.367 549.878 630.931Z" fill="black"/>
<path d="M696.651 374.932C696.651 398.496 677.548 417.598 653.984 417.598C630.42 417.598 611.318 398.496 611.318 374.932C611.318 351.368 630.42 332.265 653.984 332.265C677.548 332.265 696.651 351.368 696.651 374.932Z" fill="black"/>
<path d="M399.692 630.931C399.692 654.495 380.589 673.597 357.025 673.597C333.461 673.597 314.359 654.495 314.359 630.931C314.359 607.367 333.461 588.264 357.025 588.264C380.589 588.264 399.692 607.367 399.692 630.931Z" fill="black"/>
<rect x="0.333252" y="20" width="853.33" height="10" fill="#9B9B9B"/>
<rect x="24.2266" y="100.16" width="805.544" height="64.8531" rx="15" fill="black"/>
<path d="M435.581 153.464C433.331 153.464 431.325 153.077 429.564 152.305C427.814 151.532 426.422 150.458 425.388 149.083C424.365 147.697 423.808 146.089 423.717 144.259H428.013C428.103 145.384 428.49 146.356 429.172 147.174C429.853 147.981 430.745 148.606 431.848 149.049C432.95 149.492 434.172 149.714 435.513 149.714C437.013 149.714 438.342 149.452 439.501 148.93C440.66 148.407 441.569 147.68 442.228 146.748C442.888 145.816 443.217 144.736 443.217 143.509C443.217 142.225 442.899 141.094 442.263 140.117C441.626 139.128 440.694 138.356 439.467 137.799C438.24 137.242 436.74 136.964 434.967 136.964H432.172V133.214H434.967C436.353 133.214 437.569 132.964 438.615 132.464C439.672 131.964 440.495 131.259 441.086 130.35C441.689 129.441 441.99 128.373 441.99 127.145C441.99 125.964 441.728 124.935 441.206 124.06C440.683 123.185 439.944 122.503 438.99 122.015C438.047 121.526 436.933 121.282 435.649 121.282C434.444 121.282 433.308 121.503 432.24 121.947C431.183 122.378 430.319 123.009 429.649 123.839C428.978 124.657 428.615 125.645 428.558 126.805H424.467C424.535 124.975 425.086 123.373 426.12 121.998C427.155 120.611 428.507 119.532 430.177 118.759C431.859 117.986 433.706 117.6 435.717 117.6C437.876 117.6 439.728 118.037 441.274 118.912C442.819 119.776 444.007 120.918 444.836 122.339C445.666 123.759 446.081 125.293 446.081 126.941C446.081 128.907 445.564 130.583 444.53 131.969C443.507 133.356 442.115 134.316 440.353 134.85V135.123C442.558 135.486 444.28 136.424 445.518 137.935C446.757 139.435 447.376 141.293 447.376 143.509C447.376 145.407 446.859 147.111 445.825 148.623C444.802 150.123 443.405 151.305 441.632 152.168C439.859 153.032 437.842 153.464 435.581 153.464Z" fill="white"/>
<rect x="0.333252" y="768" width="853.333" height="10" fill="#9B9B9B"/>
<rect x="0.333252" y="269.653" width="853.333" height="10" fill="#9B9B9B"/>
<rect x="0.333252" y="518.827" width="853.333" height="10" fill="#9B9B9B"/>
<rect width="853.333" height="10" transform="matrix(1 0 0 -1 0.333252 1024)" fill="#9B9B9B"/>
<line x1="654.78" y1="1.01848e-07" x2="654.78" y2="1024" stroke="black" stroke-width="5"/>
<line x1="54.0332" y1="1.01848e-07" x2="54.0332" y2="1024" stroke="black" stroke-width="5"/>
<line x1="801.553" y1="1.01848e-07" x2="801.553" y2="1024" stroke="black" stroke-width="5"/>
<path d="M355.32 0L355.32 1024" stroke="black" stroke-width="5"/>
<line x1="508.007" y1="1.01848e-07" x2="508.007" y2="1024" stroke="black" stroke-width="5"/>
<path d="M205.133 0L205.133 1024" stroke="black" stroke-width="5"/>
</svg>
