<svg width="854" height="1024" viewBox="0 0 854 1024" fill="none" xmlns="http://www.w3.org/2000/svg">
<path d="M696.321 900.666C696.321 924.231 677.219 943.333 653.655 943.333C630.091 943.333 610.988 924.231 610.988 900.666C610.988 877.102 630.091 858 653.655 858C677.219 858 696.321 877.102 696.321 900.666Z" fill="black"/>
<path d="M397.333 900.666C397.333 924.231 378.231 943.333 354.667 943.333C331.102 943.333 312 924.231 312 900.666C312 877.102 331.102 858 354.667 858C378.231 858 397.333 877.102 397.333 900.666Z" fill="black"/>
<path d="M549.549 651.667C549.549 675.231 530.446 694.333 506.882 694.333C483.318 694.333 464.216 675.231 464.216 651.667C464.216 628.102 483.318 609 506.882 609C530.446 609 549.549 628.102 549.549 651.667Z" fill="black"/>
<path d="M843.094 394.667C843.094 418.231 823.991 437.333 800.427 437.333C776.863 437.333 757.761 418.231 757.761 394.667C757.761 371.102 776.863 352 800.427 352C823.991 352 843.094 371.102 843.094 394.667Z" fill="black"/>
<rect x="0.00390625" width="853.33" height="30.7199" fill="black"/>
<rect x="0.00390625" y="768" width="853.333" height="10" fill="#9B9B9B"/>
<rect x="0.00390625" y="269.653" width="853.333" height="10" fill="#9B9B9B"/>
<rect x="0.00390625" y="518.826" width="853.333" height="10" fill="#9B9B9B"/>
<rect width="853.333" height="10" transform="matrix(1 0 0 -1 0.00390625 1024)" fill="#9B9B9B"/>
<line x1="654.45" y1="1.01848e-07" x2="654.45" y2="1024" stroke="black" stroke-width="5"/>
<line x1="53.7041" y1="1.01848e-07" x2="53.7041" y2="1024" stroke="black" stroke-width="5"/>
<line x1="801.224" y1="1.01848e-07" x2="801.224" y2="1024" stroke="black" stroke-width="5"/>
<path d="M354.99 0L354.99 1024" stroke="black" stroke-width="5"/>
<line x1="507.678" y1="1.01848e-07" x2="507.678" y2="1024" stroke="black" stroke-width="5"/>
<path d="M204.804 0L204.804 1024" stroke="black" stroke-width="5"/>
</svg>
