<svg width="854" height="1024" viewBox="0 0 854 1024" fill="none" xmlns="http://www.w3.org/2000/svg">
<rect x="24.563" y="126.29" width="805.544" height="64.8531" rx="15" fill="black"/>
<path d="M435.031 179.594C433.031 179.594 431.23 179.196 429.628 178.401C428.025 177.605 426.741 176.514 425.775 175.128C424.809 173.742 424.281 172.162 424.19 170.389H428.281C428.44 171.969 429.156 173.276 430.429 174.31C431.713 175.333 433.247 175.844 435.031 175.844C436.463 175.844 437.736 175.509 438.849 174.838C439.974 174.168 440.855 173.247 441.491 172.077C442.139 170.895 442.463 169.56 442.463 168.071C442.463 166.549 442.128 165.191 441.457 163.997C440.798 162.793 439.889 161.844 438.73 161.151C437.571 160.458 436.247 160.105 434.758 160.094C433.69 160.083 432.594 160.247 431.469 160.588C430.344 160.918 429.417 161.344 428.69 161.867L424.736 161.389L426.849 144.208H444.986V147.958H430.395L429.167 158.253H429.372C430.088 157.685 430.986 157.213 432.065 156.838C433.145 156.463 434.27 156.276 435.44 156.276C437.576 156.276 439.48 156.787 441.15 157.81C442.832 158.821 444.15 160.208 445.105 161.969C446.071 163.73 446.554 165.742 446.554 168.003C446.554 170.23 446.054 172.219 445.054 173.969C444.065 175.708 442.701 177.083 440.963 178.094C439.224 179.094 437.247 179.594 435.031 179.594Z" fill="white"/>
<path d="M693.574 630.931C693.574 654.495 674.471 673.598 650.907 673.598C627.343 673.598 608.241 654.495 608.241 630.931C608.241 607.367 627.343 588.265 650.907 588.265C674.471 588.265 693.574 607.367 693.574 630.931Z" fill="black"/>
<path d="M400.028 630.931C400.028 654.495 380.926 673.598 357.362 673.598C333.798 673.598 314.695 654.495 314.695 630.931C314.695 607.367 333.798 588.265 357.362 588.265C380.926 588.265 400.028 607.367 400.028 630.931Z" fill="black"/>
<rect x="0.669922" y="20" width="853.33" height="10" fill="#9B9B9B"/>
<rect x="0.669922" y="768" width="853.333" height="10" fill="#9B9B9B"/>
<rect x="0.669922" y="269.653" width="853.333" height="10" fill="#9B9B9B"/>
<rect x="0.669922" y="518.826" width="853.333" height="10" fill="#9B9B9B"/>
<rect width="853.333" height="10" transform="matrix(1 0 0 -1 0.669922 1024)" fill="#9B9B9B"/>
<line x1="655.117" y1="1.01848e-07" x2="655.117" y2="1024" stroke="black" stroke-width="5"/>
<line x1="54.3701" y1="1.01848e-07" x2="54.3701" y2="1024" stroke="black" stroke-width="5"/>
<line x1="801.89" y1="1.01848e-07" x2="801.89" y2="1024" stroke="black" stroke-width="5"/>
<path d="M355.657 0L355.657 1024" stroke="black" stroke-width="5"/>
<line x1="508.343" y1="1.01848e-07" x2="508.343" y2="1024" stroke="black" stroke-width="5"/>
<path d="M205.47 0L205.47 1024" stroke="black" stroke-width="5"/>
</svg>
