<svg width="854" height="1024" viewBox="0 0 854 1024" fill="none" xmlns="http://www.w3.org/2000/svg">
<path d="M696.654 374.932C696.654 398.496 677.552 417.599 653.988 417.599C630.424 417.599 611.321 398.496 611.321 374.932C611.321 351.368 630.424 332.266 653.988 332.266C677.552 332.266 696.654 351.368 696.654 374.932Z" fill="black"/>
<path d="M399.695 630.931C399.695 654.495 380.593 673.598 357.029 673.598C333.465 673.598 314.362 654.495 314.362 630.931C314.362 607.367 333.465 588.265 357.029 588.265C380.593 588.265 399.695 607.367 399.695 630.931Z" fill="black"/>
<rect x="0.336914" y="20" width="853.33" height="10" fill="#9B9B9B"/>
<rect x="24.2305" y="114.16" width="805.544" height="64.8531" rx="15" fill="black"/>
<path d="M434.699 167.464C432.699 167.464 430.897 167.066 429.295 166.27C427.693 165.475 426.409 164.384 425.443 162.998C424.477 161.611 423.949 160.032 423.858 158.259H427.949C428.108 159.839 428.824 161.145 430.096 162.18C431.38 163.202 432.914 163.714 434.699 163.714C436.13 163.714 437.403 163.378 438.517 162.708C439.642 162.037 440.522 161.117 441.159 159.947C441.806 158.765 442.13 157.43 442.13 155.941C442.13 154.418 441.795 153.06 441.125 151.867C440.466 150.662 439.556 149.714 438.397 149.02C437.238 148.327 435.914 147.975 434.426 147.964C433.358 147.952 432.261 148.117 431.136 148.458C430.011 148.787 429.085 149.214 428.358 149.736L424.403 149.259L426.517 132.077H444.653V135.827H430.062L428.835 146.123H429.039C429.755 145.555 430.653 145.083 431.733 144.708C432.812 144.333 433.937 144.145 435.108 144.145C437.244 144.145 439.147 144.657 440.818 145.68C442.5 146.691 443.818 148.077 444.772 149.839C445.738 151.6 446.221 153.611 446.221 155.873C446.221 158.1 445.721 160.089 444.721 161.839C443.733 163.577 442.369 164.952 440.63 165.964C438.892 166.964 436.914 167.464 434.699 167.464Z" fill="white"/>
<rect x="0.336914" y="768" width="853.333" height="10" fill="#9B9B9B"/>
<rect x="0.336914" y="269.653" width="853.333" height="10" fill="#9B9B9B"/>
<rect x="0.336914" y="518.826" width="853.333" height="10" fill="#9B9B9B"/>
<rect width="853.333" height="10" transform="matrix(1 0 0 -1 0.336914 1024)" fill="#9B9B9B"/>
<line x1="654.783" y1="1.01848e-07" x2="654.783" y2="1024" stroke="black" stroke-width="5"/>
<line x1="54.0371" y1="1.01848e-07" x2="54.0371" y2="1024" stroke="black" stroke-width="5"/>
<line x1="801.557" y1="1.01848e-07" x2="801.557" y2="1024" stroke="black" stroke-width="5"/>
<path d="M355.323 0L355.323 1024" stroke="black" stroke-width="5"/>
<line x1="508.011" y1="1.01848e-07" x2="508.011" y2="1024" stroke="black" stroke-width="5"/>
<path d="M205.137 0L205.137 1024" stroke="black" stroke-width="5"/>
</svg>
