<svg width="854" height="1024" viewBox="0 0 854 1024" fill="none" xmlns="http://www.w3.org/2000/svg">
<circle cx="505.039" cy="646.667" r="42.6665" fill="black"/>
<circle cx="204.667" cy="889.012" r="42.6665" fill="black"/>
<circle cx="354.667" cy="889.012" r="42.6665" fill="black"/>
<rect width="853.33" height="30.7199" fill="black"/>
<rect y="768" width="853.333" height="10" fill="#9B9B9B"/>
<rect y="269.653" width="853.333" height="10" fill="#9B9B9B"/>
<rect y="518.827" width="853.333" height="10" fill="#9B9B9B"/>
<rect width="853.333" height="10" transform="matrix(1 0 0 -1 0 1024)" fill="#9B9B9B"/>
<line x1="654.447" y1="1.01848e-07" x2="654.447" y2="1024" stroke="black" stroke-width="5"/>
<line x1="53.7002" y1="1.01848e-07" x2="53.7001" y2="1024" stroke="black" stroke-width="5"/>
<line x1="801.22" y1="1.01848e-07" x2="801.22" y2="1024" stroke="black" stroke-width="5"/>
<path d="M354.987 0L354.987 1024" stroke="black" stroke-width="5"/>
<line x1="507.673" y1="1.01848e-07" x2="507.673" y2="1024" stroke="black" stroke-width="5"/>
<path d="M204.8 0L204.8 1024" stroke="black" stroke-width="5"/>
<rect x="24" y="361" width="805.544" height="64.8531" rx="15" fill="black"/>
<path d="M423.559 413.827V410.758L435.082 398.145C436.434 396.668 437.548 395.383 438.423 394.293C439.298 393.19 439.945 392.156 440.366 391.19C440.798 390.213 441.013 389.19 441.013 388.122C441.013 386.895 440.718 385.832 440.127 384.935C439.548 384.037 438.752 383.344 437.741 382.855C436.729 382.366 435.593 382.122 434.332 382.122C432.991 382.122 431.82 382.401 430.82 382.957C429.832 383.503 429.065 384.27 428.519 385.258C427.985 386.247 427.718 387.406 427.718 388.736H423.695C423.695 386.69 424.167 384.895 425.11 383.349C426.053 381.804 427.337 380.599 428.962 379.736C430.599 378.872 432.434 378.44 434.468 378.44C436.513 378.44 438.326 378.872 439.906 379.736C441.485 380.599 442.724 381.764 443.621 383.23C444.519 384.696 444.968 386.327 444.968 388.122C444.968 389.406 444.735 390.662 444.269 391.889C443.815 393.105 443.019 394.463 441.883 395.963C440.758 397.452 439.195 399.27 437.195 401.418L429.354 409.804V410.077H445.582V413.827H423.559Z" fill="white"/>
</svg>
