<svg width="854" height="1024" viewBox="0 0 854 1024" fill="none" xmlns="http://www.w3.org/2000/svg">
<path d="M249.505 627.518C249.505 651.082 230.403 670.184 206.839 670.184C183.275 670.184 164.172 651.082 164.172 627.518C164.172 603.954 183.275 584.851 206.839 584.851C230.403 584.851 249.505 603.954 249.505 627.518Z" fill="black"/>
<circle cx="503.798" cy="378.345" r="42.6665" fill="black"/>
<circle cx="357.025" cy="627.518" r="42.6665" fill="black"/>
<rect x="24.2261" y="114.16" width="805.544" height="64.8531" rx="15" fill="black"/>
<path d="M435.58 167.464C433.33 167.464 431.325 167.078 429.563 166.305C427.813 165.532 426.421 164.458 425.387 163.083C424.365 161.697 423.808 160.089 423.717 158.259H428.012C428.103 159.384 428.49 160.356 429.171 161.174C429.853 161.981 430.745 162.606 431.848 163.049C432.95 163.492 434.171 163.714 435.512 163.714C437.012 163.714 438.342 163.453 439.501 162.93C440.66 162.407 441.569 161.68 442.228 160.748C442.887 159.816 443.217 158.737 443.217 157.509C443.217 156.225 442.899 155.095 442.262 154.117C441.626 153.129 440.694 152.356 439.467 151.799C438.24 151.242 436.74 150.964 434.967 150.964H432.171V147.214H434.967C436.353 147.214 437.569 146.964 438.615 146.464C439.671 145.964 440.495 145.259 441.086 144.35C441.688 143.441 441.99 142.373 441.99 141.146C441.99 139.964 441.728 138.936 441.205 138.061C440.683 137.186 439.944 136.504 438.99 136.015C438.046 135.526 436.933 135.282 435.649 135.282C434.444 135.282 433.308 135.504 432.24 135.947C431.183 136.379 430.319 137.009 429.649 137.839C428.978 138.657 428.615 139.646 428.558 140.805H424.467C424.535 138.975 425.086 137.373 426.12 135.998C427.154 134.612 428.507 133.532 430.177 132.759C431.859 131.987 433.705 131.6 435.717 131.6C437.876 131.6 439.728 132.038 441.274 132.913C442.819 133.776 444.007 134.919 444.836 136.339C445.666 137.759 446.08 139.294 446.08 140.941C446.08 142.907 445.563 144.583 444.529 145.97C443.507 147.356 442.115 148.316 440.353 148.85V149.123C442.558 149.487 444.279 150.424 445.518 151.936C446.757 153.436 447.376 155.294 447.376 157.509C447.376 159.407 446.859 161.112 445.825 162.623C444.802 164.123 443.404 165.305 441.632 166.169C439.859 167.032 437.842 167.464 435.58 167.464Z" fill="white"/>
<rect x="0.333008" y="20" width="853.33" height="10" fill="#9B9B9B"/>
<rect x="0.333008" y="768" width="853.333" height="10" fill="#9B9B9B"/>
<rect x="0.333008" y="269.653" width="853.333" height="10" fill="#9B9B9B"/>
<rect x="0.333008" y="518.827" width="853.333" height="10" fill="#9B9B9B"/>
<rect width="853.333" height="10" transform="matrix(1 0 0 -1 0.333008 1024)" fill="#9B9B9B"/>
<line x1="654.78" y1="1.01848e-07" x2="654.78" y2="1024" stroke="black" stroke-width="5"/>
<line x1="54.0332" y1="1.01848e-07" x2="54.0332" y2="1024" stroke="black" stroke-width="5"/>
<line x1="801.553" y1="1.01848e-07" x2="801.553" y2="1024" stroke="black" stroke-width="5"/>
<path d="M355.32 0L355.32 1024" stroke="black" stroke-width="5"/>
<line x1="508.006" y1="1.01848e-07" x2="508.006" y2="1024" stroke="black" stroke-width="5"/>
<path d="M205.133 0L205.133 1024" stroke="black" stroke-width="5"/>
</svg>
