<svg width="854" height="1024" viewBox="0 0 854 1024" fill="none" xmlns="http://www.w3.org/2000/svg">
<path d="M95.5727 650.237C95.5727 673.801 76.4703 692.904 52.9062 692.904C29.3422 692.904 10.2397 673.801 10.2397 650.237C10.2397 626.673 29.3422 607.571 52.9062 607.571C76.4703 607.571 95.5727 626.673 95.5727 650.237Z" fill="black"/>
<path d="M245.759 390.825C245.759 414.389 226.657 433.492 203.093 433.492C179.529 433.492 160.426 414.389 160.426 390.825C160.426 367.261 179.529 348.159 203.093 348.159C226.657 348.159 245.759 367.261 245.759 390.825Z" fill="black"/>
<path d="M843.09 148.479C843.09 172.043 823.987 191.146 800.423 191.146C776.859 191.146 757.757 172.043 757.757 148.479C757.757 124.915 776.859 105.813 800.423 105.813C823.987 105.813 843.09 124.915 843.09 148.479Z" fill="black"/>
<rect width="853.33" height="30.7199" fill="black"/>
<rect y="768" width="853.333" height="10" fill="#9B9B9B"/>
<rect y="269.653" width="853.333" height="10" fill="#9B9B9B"/>
<rect y="518.827" width="853.333" height="10" fill="#9B9B9B"/>
<rect width="853.333" height="10" transform="matrix(1 0 0 -1 0 1024)" fill="#9B9B9B"/>
<line x1="654.447" y1="1.01848e-07" x2="654.447" y2="1024" stroke="black" stroke-width="5"/>
<line x1="53.7002" y1="1.01848e-07" x2="53.7001" y2="1024" stroke="black" stroke-width="5"/>
<line x1="801.22" y1="1.01848e-07" x2="801.22" y2="1024" stroke="black" stroke-width="5"/>
<path d="M354.987 0L354.987 1024" stroke="black" stroke-width="5"/>
<line x1="507.673" y1="1.01848e-07" x2="507.673" y2="1024" stroke="black" stroke-width="5"/>
<path d="M204.8 0L204.8 1024" stroke="black" stroke-width="5"/>
</svg>
