<svg width="854" height="1024" viewBox="0 0 854 1024" fill="none" xmlns="http://www.w3.org/2000/svg">
<path d="M549.544 394.238C549.544 417.802 530.442 436.905 506.878 436.905C483.314 436.905 464.211 417.802 464.211 394.238C464.211 370.674 483.314 351.572 506.878 351.572C530.442 351.572 549.544 370.674 549.544 394.238Z" fill="black"/>
<path d="M843.09 394.238C843.09 417.802 823.987 436.905 800.423 436.905C776.859 436.905 757.757 417.802 757.757 394.238C757.757 370.674 776.859 351.572 800.423 351.572C823.987 351.572 843.09 370.674 843.09 394.238Z" fill="black"/>
<path d="M245.759 394.238C245.759 417.802 226.657 436.905 203.093 436.905C179.529 436.905 160.426 417.802 160.426 394.238C160.426 370.674 179.529 351.572 203.093 351.572C226.657 351.572 245.759 370.674 245.759 394.238Z" fill="black"/>
<path d="M399.358 151.893C399.358 175.457 380.256 194.559 356.692 194.559C333.128 194.559 314.025 175.457 314.025 151.893C314.025 128.329 333.128 109.226 356.692 109.226C380.256 109.226 399.358 128.329 399.358 151.893Z" fill="black"/>
<rect width="853.33" height="30.7199" fill="black"/>
<rect y="768" width="853.333" height="10" fill="#9B9B9B"/>
<rect y="269.653" width="853.333" height="10" fill="#9B9B9B"/>
<rect y="518.827" width="853.333" height="10" fill="#9B9B9B"/>
<rect width="853.333" height="10" transform="matrix(1 0 0 -1 0 1024)" fill="#9B9B9B"/>
<line x1="654.447" y1="1.01848e-07" x2="654.447" y2="1024" stroke="black" stroke-width="5"/>
<line x1="53.7002" y1="1.01848e-07" x2="53.7001" y2="1024" stroke="black" stroke-width="5"/>
<line x1="801.22" y1="1.01848e-07" x2="801.22" y2="1024" stroke="black" stroke-width="5"/>
<path d="M354.987 0L354.987 1024" stroke="black" stroke-width="5"/>
<line x1="507.673" y1="1.01848e-07" x2="507.673" y2="1024" stroke="black" stroke-width="5"/>
<path d="M204.8 0L204.8 1024" stroke="black" stroke-width="5"/>
</svg>
