<svg width="854" height="1024" viewBox="0 0 854 1024" fill="none" xmlns="http://www.w3.org/2000/svg">
<path d="M550.211 913.063C550.211 936.627 531.108 955.729 507.544 955.729C483.98 955.729 464.878 936.627 464.878 913.063C464.878 889.499 483.98 870.396 507.544 870.396C531.108 870.396 550.211 889.499 550.211 913.063Z" fill="black"/>
<path d="M696.984 657.064C696.984 680.628 677.881 699.73 654.317 699.73C630.753 699.73 611.651 680.628 611.651 657.064C611.651 633.5 630.753 614.397 654.317 614.397C677.881 614.397 696.984 633.5 696.984 657.064Z" fill="black"/>
<path d="M400.025 913.063C400.025 936.627 380.922 955.729 357.358 955.729C333.794 955.729 314.692 936.627 314.692 913.063C314.692 889.499 333.794 870.396 357.358 870.396C380.922 870.396 400.025 889.499 400.025 913.063Z" fill="black"/>
<rect x="0.666504" width="853.33" height="30.7199" fill="black"/>
<rect x="0.666504" y="768" width="853.333" height="10" fill="#9B9B9B"/>
<rect x="0.666504" y="269.653" width="853.333" height="10" fill="#9B9B9B"/>
<rect x="0.666504" y="518.827" width="853.333" height="10" fill="#9B9B9B"/>
<rect width="853.333" height="10" transform="matrix(1 0 0 -1 0.666504 1024)" fill="#9B9B9B"/>
<line x1="655.113" y1="1.01848e-07" x2="655.113" y2="1024" stroke="black" stroke-width="5"/>
<line x1="54.3665" y1="1.01848e-07" x2="54.3664" y2="1024" stroke="black" stroke-width="5"/>
<line x1="801.887" y1="1.01848e-07" x2="801.887" y2="1024" stroke="black" stroke-width="5"/>
<path d="M355.653 0L355.653 1024" stroke="black" stroke-width="5"/>
<line x1="508.34" y1="1.01848e-07" x2="508.34" y2="1024" stroke="black" stroke-width="5"/>
<path d="M205.467 0L205.467 1024" stroke="black" stroke-width="5"/>
<rect x="25" y="361" width="805.544" height="64.8531" rx="15" fill="black"/>
<path d="M424.559 413.827V410.758L436.081 398.145C437.434 396.668 438.547 395.383 439.422 394.293C440.297 393.19 440.945 392.156 441.366 391.19C441.797 390.213 442.013 389.19 442.013 388.122C442.013 386.895 441.718 385.832 441.127 384.935C440.547 384.037 439.752 383.344 438.741 382.855C437.729 382.366 436.593 382.122 435.331 382.122C433.991 382.122 432.82 382.401 431.82 382.957C430.831 383.503 430.064 384.27 429.519 385.258C428.985 386.247 428.718 387.406 428.718 388.736H424.695C424.695 386.69 425.167 384.895 426.11 383.349C427.053 381.804 428.337 380.599 429.962 379.736C431.598 378.872 433.434 378.44 435.468 378.44C437.513 378.44 439.326 378.872 440.905 379.736C442.485 380.599 443.723 381.764 444.621 383.23C445.519 384.696 445.968 386.327 445.968 388.122C445.968 389.406 445.735 390.662 445.269 391.889C444.814 393.105 444.019 394.463 442.883 395.963C441.758 397.452 440.195 399.27 438.195 401.418L430.354 409.804V410.077H446.581V413.827H424.559Z" fill="white"/>
</svg>
