<svg width="18" height="18" viewBox="0 0 18 18" fill="none" xmlns="http://www.w3.org/2000/svg">
<g clip-path="url(#clip0_625_314)">
<path d="M3 6.805H6.805V3H12V7.19H13V3C13 2.73478 12.8946 2.48043 12.7071 2.29289C12.5196 2.10536 12.2652 2 12 2H5.435L2 5.435V15C2 15.2652 2.10536 15.5196 2.29289 15.7071C2.48043 15.8946 2.73478 16 3 16H12C12.2652 16 12.5196 15.8946 12.7071 15.7071C12.8946 15.5196 13 15.2652 13 15H3V6.805ZM3 5.845L5.845 3H6V6H3V5.845Z" fill="black"/>
<path d="M14.16 8.17504C14.0643 8.09313 13.9413 8.05032 13.8155 8.05518C13.6896 8.06004 13.5703 8.11221 13.4812 8.20126C13.3922 8.2903 13.34 8.40967 13.3351 8.53551C13.3303 8.66135 13.3731 8.78439 13.455 8.88004L15.08 10.5H9C8.86739 10.5 8.74021 10.5527 8.64645 10.6465C8.55268 10.7403 8.5 10.8674 8.5 11C8.5 11.1326 8.55268 11.2598 8.64645 11.3536C8.74021 11.4474 8.86739 11.5 9 11.5H15.095L13.455 13.14C13.4027 13.1849 13.3601 13.24 13.3301 13.3021C13.3001 13.3641 13.2833 13.4317 13.2806 13.5005C13.2779 13.5694 13.2895 13.638 13.3147 13.7022C13.3398 13.7664 13.3779 13.8246 13.4267 13.8734C13.4754 13.9221 13.5337 13.9602 13.5978 13.9854C13.662 14.0105 13.7307 14.0221 13.7995 14.0194C13.8684 14.0168 13.936 13.9999 13.998 13.9699C14.06 13.9399 14.1152 13.8974 14.16 13.845L17 11L14.16 8.17504Z" fill="black"/>
</g>
<defs>
<clipPath id="clip0_625_314">
<rect width="18" height="18" fill="white"/>
</clipPath>
</defs>
</svg>
