<svg width="18" height="18" viewBox="0 0 18 18" fill="none" xmlns="http://www.w3.org/2000/svg">
<g clip-path="url(#clip0_625_318)">
<path d="M14 2H7.435L4 5.43V7.5H5V6.805H8.805V3H14V15H4C4 15.2652 4.10536 15.5196 4.29289 15.7071C4.48043 15.8946 4.73478 16 5 16H14C14.2652 16 14.5196 15.8946 14.7071 15.7071C14.8946 15.5196 15 15.2652 15 15V3C15 2.73478 14.8946 2.48043 14.7071 2.29289C14.5196 2.10536 14.2652 2 14 2ZM8 6H5V5.84L7.85 3H8V6Z" fill="black"/>
<path d="M5.97 13.14C5.91766 13.1848 5.87515 13.24 5.84514 13.302C5.81513 13.3641 5.79826 13.4316 5.7956 13.5005C5.79294 13.5694 5.80454 13.638 5.82968 13.7022C5.85482 13.7663 5.89295 13.8246 5.94167 13.8733C5.9904 13.9221 6.04868 13.9602 6.11284 13.9853C6.177 14.0105 6.24567 14.0221 6.31453 14.0194C6.38339 14.0168 6.45095 13.9999 6.51299 13.9699C6.57502 13.9399 6.63018 13.8974 6.675 13.845L9.5 11L6.66 8.16002C6.56435 8.07811 6.44131 8.03531 6.31547 8.04017C6.18964 8.04503 6.07027 8.09719 5.98122 8.18624C5.89217 8.27529 5.84001 8.39466 5.83514 8.5205C5.83028 8.64634 5.87309 8.76937 5.955 8.86502L7.6 10.5H1.5C1.36739 10.5 1.24021 10.5527 1.14645 10.6465C1.05268 10.7402 1 10.8674 1 11C1 11.1326 1.05268 11.2598 1.14645 11.3536C1.24021 11.4473 1.36739 11.5 1.5 11.5H7.615L5.97 13.14Z" fill="black"/>
</g>
<defs>
<clipPath id="clip0_625_318">
<rect width="18" height="18" fill="white"/>
</clipPath>
</defs>
</svg>
