<svg width="18" height="18" viewBox="0 0 18 18" fill="none" xmlns="http://www.w3.org/2000/svg">
<g clip-path="url(#clip0_624_308)">
<path d="M3 11H15V12H3V11Z" fill="black"/>
<path d="M13 13H15V14H13V13Z" fill="black"/>
<path d="M6.49983 4.95996L8.49983 2.99996V9.49996C8.49983 9.63256 8.55251 9.75974 8.64627 9.85351C8.74004 9.94728 8.86722 9.99996 8.99983 9.99996C9.13244 9.99996 9.25961 9.94728 9.35338 9.85351C9.44715 9.75974 9.49983 9.63256 9.49983 9.49996V2.99996L11.4998 4.97496C11.5474 5.02026 11.6035 5.05575 11.6648 5.07939C11.7261 5.10303 11.7915 5.11436 11.8572 5.11273C11.9229 5.11111 11.9876 5.09656 12.0477 5.06992C12.1078 5.04327 12.162 5.00506 12.2073 4.95746C12.2526 4.90985 12.2881 4.85379 12.3118 4.79247C12.3354 4.73115 12.3467 4.66578 12.3451 4.60008C12.3435 4.53438 12.3289 4.46965 12.3023 4.40958C12.2756 4.3495 12.2374 4.29526 12.1898 4.24996L8.99983 1.07996L5.80483 4.24996C5.7274 4.34525 5.68774 4.4657 5.6934 4.58835C5.69907 4.71101 5.74967 4.82729 5.83556 4.91503C5.92145 5.00277 6.03663 5.05584 6.15913 5.06413C6.28164 5.07242 6.40291 5.03534 6.49983 4.95996Z" fill="black"/>
<path d="M15.42 6.68501C15.3577 6.48206 15.2306 6.30515 15.0581 6.18141C14.8855 6.05768 14.6772 5.99395 14.465 6.00001H10.5V7.00001H14.475C15 8.47001 15.86 10.825 16 11.24V15H2V11.24C2.14 10.825 3.525 7.00001 3.525 7.00001H7.5V6.00001H3.535C3.32643 5.99179 3.12086 6.05177 2.94943 6.17086C2.77801 6.28996 2.65007 6.46168 2.585 6.66001C1 11 1 11.05 1 11.165V15C1 15.2652 1.10536 15.5196 1.29289 15.7071C1.48043 15.8947 1.73478 16 2 16H16C16.2652 16 16.5196 15.8947 16.7071 15.7071C16.8946 15.5196 17 15.2652 17 15V11.165C17 11.05 17 11 15.42 6.68501Z" fill="black"/>
</g>
<defs>
<clipPath id="clip0_624_308">
<rect width="18" height="18" fill="white"/>
</clipPath>
</defs>
</svg>
