<svg width="18" height="18" viewBox="0 0 18 18" fill="none" xmlns="http://www.w3.org/2000/svg">
<g clip-path="url(#clip0_624_297)">
<path d="M3 11H15V12H3V11Z" fill="black"/>
<path d="M15.42 6.68501C15.3577 6.48206 15.2306 6.30515 15.0581 6.18141C14.8855 6.05768 14.6772 5.99395 14.465 6.00001H13.275C13.367 6.33151 13.3423 6.68457 13.205 7.00001H14.475C15 8.47001 15.86 10.825 16 11.24V15H2V11.24C2.14 10.825 3.525 7.00001 3.525 7.00001H4.79C4.65268 6.68457 4.62796 6.33151 4.72 6.00001H3.535C3.32643 5.99179 3.12086 6.05177 2.94943 6.17086C2.77801 6.28996 2.65007 6.46168 2.585 6.66001C1 11 1 11.05 1 11.165V15C1 15.2652 1.10536 15.5196 1.29289 15.7071C1.48043 15.8947 1.73478 16 2 16H16C16.2652 16 16.5196 15.8947 16.7071 15.7071C16.8946 15.5196 17 15.2652 17 15V11.165C17 11.05 17 11 15.42 6.68501Z" fill="black"/>
<path d="M9.00024 9.92L12.1902 6.745C12.2497 6.70341 12.2995 6.64937 12.336 6.58662C12.3725 6.52387 12.3949 6.45393 12.4017 6.38165C12.4084 6.30936 12.3993 6.23648 12.3751 6.16806C12.3508 6.09963 12.3119 6.03732 12.2612 5.98544C12.2104 5.93355 12.1489 5.89335 12.081 5.86762C12.0131 5.84189 11.9405 5.83125 11.8681 5.83645C11.7956 5.84164 11.7252 5.86254 11.6617 5.89769C11.5982 5.93284 11.5431 5.9814 11.5002 6.04L9.50024 8V2C9.50024 1.86739 9.44756 1.74021 9.3538 1.64645C9.26003 1.55268 9.13285 1.5 9.00024 1.5C8.86763 1.5 8.74046 1.55268 8.64669 1.64645C8.55292 1.74021 8.50024 1.86739 8.50024 2V8L6.50024 6.025C6.40609 5.93151 6.27866 5.87925 6.14597 5.87972C6.01329 5.88019 5.88623 5.93335 5.79274 6.0275C5.69925 6.12165 5.647 6.24909 5.64746 6.38177C5.64793 6.51445 5.70109 6.64151 5.79524 6.735L9.00024 9.92Z" fill="black"/>
</g>
<defs>
<clipPath id="clip0_624_297">
<rect width="18" height="18" fill="white"/>
</clipPath>
</defs>
</svg>
